<?xml version="1.0" encoding="utf-8"?>
<!-- Generator: Adobe Illustrator 25.4.1, SVG Export Plug-In . SVG Version: 6.00 Build 0)  -->
<svg version="1.1" id="Capa_1" xmlns="http://www.w3.org/2000/svg" xmlns:xlink="http://www.w3.org/1999/xlink" x="0px" y="0px"
	 viewBox="50 -20 500 185"  xml:space="preserve">
<style type="text/css">
	.st0{fill:none;}
	.st1{fill:#E4472E;}
	.st2{fill:#FFFFFF;}
	.st3{fill:#0070A7;}
	.st4{fill:#D8DADE;}
	.st5{fill:#C3C5CA;}
	.st6{fill:#BC0C24;}
	.st7{fill:#00A694;}
	.st8{fill:#E4503D;}
	.st9{fill:#CB3D2C;}
	.st10{fill:#F0F0EF;}
	.st11{fill:none;stroke:#FFFFFF;stroke-width:0.5;stroke-miterlimit:10;}
	.st12{fill:#3D7CC9;}
	.st13{fill:#316094;}
	.st14{fill:#065494;}
	.st15{fill:#009C8B;}
	.st16{fill:#009E8A;}
	.st17{fill:#008D7C;}
</style>
<rect y="0" class="st0" width="890" height="966"/>
<path class="st1" d="M437.6,735.4H224.2v230.9h213.4V735.4z"/>
<path class="st2" d="M213.4,735.4H-0.1v230.9h213.4V735.4z"/>
<path class="st3" d="M663.2,735.4H449.8v230.9h213.4V735.4z"/>
<path class="st4" d="M133.6,879.3L133.6,879.3L133.6,879.3l-27.1-13.6l-27.1,13.6h0h0h0h0l27.1,13.6L133.6,879.3L133.6,879.3
	L133.6,879.3z"/>
<path class="st5" d="M106.6,865.7L106.6,865.7l-27.1,13.6h0h0h0h0l27.1,13.6l0,0V865.7z"/>
<path class="st5" d="M106.5,895l-25.2,8.4v15.8l25.3,15l23.7-13.8v-17.3L106.5,895z"/>
<path class="st4" d="M106.5,895l-23.6,7.9v17.4l23.7,13.8l0,0L106.5,895L106.5,895z"/>
<path class="st6" d="M122.5,924.8l12.3-7.2v-37.3l-28.2,14.1v19.2l15.9-9.1V924.8z"/>
<path class="st1" d="M90.8,924.8v-20.3l15.9,9.1v-19.2l-28.2-14.1v37.3L90.8,924.8z"/>
<path class="st1" d="M85.9,780.5h5.8l4.3,7.9l4.3-7.9h5.8v12.3h-3.7v-8.9l-5,8.9h-2.8l-5-8.9v8.9h-3.7L85.9,780.5z"/>
<path class="st1" d="M114.1,780.5h4.9l6.8,12.3h-4.2l-1.2-2.2h-7.7l-1.1,2.2h-4.2L114.1,780.5z M114.2,788h4.8l-2.4-4.6L114.2,788z"
	/>
<path class="st1" d="M127.3,780.5h11.4c3.8,0,5.1,1.2,5.1,4.3v3.8c0,3-1.3,4.3-5.1,4.3h-11.4V780.5z M131.1,789.6h6.7
	c1.6,0,2.2-0.5,2.2-2.2v-1.7c0-1.8-0.6-2.2-2.2-2.2h-6.7V789.6z"/>
<path class="st7" d="M85.9,795.3H92c2.1,0,2.7,1.1,2.7,2.5v0.7c0,1.1-0.5,2.3-2.1,2.3h-4.5v1.8h-2.2V795.3z M88.1,799h3.5
	c0.1,0,0.2,0,0.3,0c0.1,0,0.2-0.1,0.3-0.2c0.1-0.1,0.1-0.2,0.2-0.3c0-0.1,0-0.2,0-0.3v-0.3c0-0.5-0.2-0.8-0.9-0.8h-3.3V799z"/>
<path class="st7" d="M98.6,795.3h2.9l4,7.3H103l-0.7-1.3h-4.5l-0.7,1.3h-2.5L98.6,795.3z M98.6,799.8h2.9L100,797L98.6,799.8z"/>
<path class="st7" d="M106.2,797.9c0-2.2,1.2-2.7,3.2-2.7h2.7c3.2,0,3.6,0.7,3.6,2.8h-2.2v-0.2c0-0.5-0.4-0.7-1.1-0.7h-2.5
	c-1.2,0-1.4,0.6-1.4,1.5v0.8c0,1.1,0.2,1.5,1.3,1.5h2.4c1,0,1.3-0.1,1.3-1h2.2v0.6c0,1.2-0.4,2.2-2.7,2.2h-3.6c-2,0-3.2-0.5-3.2-2.7
	V797.9z"/>
<path class="st7" d="M117.1,795.3h2.2v2.7h1.1l2.8-2.7h3.1l-4,3.6l4.4,3.8h-3.2l-3.2-2.8h-1v2.8h-2.2L117.1,795.3z"/>
<path class="st7" d="M130.9,795.3h2.9l4,7.3h-2.5l-0.7-1.3h-4.6l-0.7,1.3h-2.5L130.9,795.3z M130.9,799.8h2.9l-1.5-2.8L130.9,799.8z
	"/>
<path class="st7" d="M138.5,797.9c0-2.2,1.2-2.7,3.2-2.7h3.4c2.5,0,2.9,0.9,2.9,2.4v0.2h-2.2c0-0.7-0.4-0.8-1.1-0.8h-2.4
	c-1.1,0-1.4,0.3-1.4,1.5v1c0,1.3,0.3,1.5,1.4,1.5h2.4c0.6,0,1.2-0.1,1.2-0.8V800H143v-1.5h5.1v2c0,2.1-1.1,2.2-3.6,2.2h-2.7
	c-2,0-3.2-0.5-3.2-2.7L138.5,797.9z"/>
<path class="st7" d="M149.5,795.3h2.2v7.3h-2.2V795.3z"/>
<path class="st7" d="M153.4,795.3h3.5l4.2,5.3v-5.3h2.2v7.3h-3.5l-4.2-5.3v5.3h-2.2V795.3z"/>
<path class="st7" d="M164.7,797.9c0-2.2,1.2-2.7,3.2-2.7h3.4c2.6,0,2.9,0.9,2.9,2.4v0.2h-2.2c0-0.7-0.4-0.8-1.1-0.8h-2.4
	c-1.1,0-1.4,0.3-1.4,1.5v1c0,1.3,0.3,1.5,1.4,1.5h2.4c0.6,0,1.2-0.1,1.2-0.8V800h-2.8v-1.5h5.1v2c0,2.1-1.1,2.2-3.6,2.2H168
	c-2,0-3.2-0.5-3.2-2.7V797.9z"/>
<path class="st3" d="M89,807.7c0,0.9-0.3,1.1-1.3,1.1c-1,0-1.5-0.2-1.5-1.5V806c0-1.2,0.4-1.5,1.5-1.5c0.9,0,1.3,0.1,1.3,1.1v0.3
	h-0.4v-0.3c0-0.7-0.2-0.7-0.9-0.7c-1,0-1.1,0.1-1.1,1.1v1.4c0,0.9,0.1,1.1,1.1,1.1c1,0,0.9-0.2,0.9-0.8v-0.3H89V807.7z"/>
<path class="st3" d="M91.6,808.6c-0.1,0.1-0.2,0.2-0.4,0.3c-0.2,0.1-0.3,0.1-0.5,0c-0.8,0-0.9-0.4-0.9-0.9s0.1-0.9,0.9-0.9
	c0.6,0,0.7,0.1,0.8,0.3v-0.5c0-0.4,0-0.6-0.7-0.6s-0.6,0.2-0.6,0.5h-0.4v-0.2c0-0.4,0.1-0.7,1-0.7c0.9,0,1,0.3,1,0.8v2.2h-0.3
	L91.6,808.6z M90.8,808.5c0.5,0,0.7-0.1,0.7-0.6s-0.2-0.6-0.7-0.6s-0.7,0.1-0.7,0.6S90.4,808.5,90.8,808.5z"/>
<path class="st3" d="M92.9,804.6h0.4v4.2h-0.4V804.6z"/>
<path class="st3" d="M94.3,804.6h0.4v0.5h-0.4V804.6z M94.3,805.8h0.4v3h-0.4V805.8z"/>
<path class="st3" d="M97.4,808.5c-0.1,0.1-0.2,0.3-0.3,0.3s-0.3,0.1-0.5,0.1c-0.8,0-1.1-0.4-1.1-1.5s0.2-1.5,1-1.5
	c0.2,0,0.3,0,0.5,0.1c0.1,0.1,0.3,0.2,0.4,0.3v-1.7h0.4v4.2h-0.4L97.4,808.5z M96.7,808.5c0.6,0,0.7-0.2,0.7-1.3c0-0.7-0.2-1-0.7-1
	s-0.7,0.1-0.7,1.2C96,808.3,96.1,808.5,96.7,808.5z"/>
<path class="st3" d="M100.5,808.6c-0.1,0.1-0.2,0.2-0.4,0.3c-0.2,0.1-0.3,0.1-0.5,0c-0.8,0-0.9-0.4-0.9-0.9s0.1-0.9,0.9-0.9
	c0.6,0,0.7,0.1,0.8,0.3v-0.5c0-0.4,0-0.6-0.7-0.6c-0.7,0-0.6,0.2-0.6,0.5h-0.4v-0.2c0-0.4,0.1-0.7,1-0.7c0.9,0,1,0.3,1,0.8v2.2h-0.3
	L100.5,808.6z M99.7,808.5c0.5,0,0.7-0.1,0.7-0.6c0-0.5-0.2-0.6-0.7-0.6c-0.5,0-0.7,0.1-0.7,0.6C99,808.4,99.2,808.5,99.7,808.5
	L99.7,808.5z"/>
<path class="st3" d="M103.5,808.5c-0.1,0.1-0.2,0.3-0.3,0.3c-0.1,0.1-0.3,0.1-0.5,0.1c-0.8,0-1.1-0.4-1.1-1.5s0.2-1.5,1-1.5
	c0.2,0,0.3,0,0.5,0.1c0.1,0.1,0.3,0.2,0.4,0.3v-1.7h0.4v4.2h-0.4L103.5,808.5z M102.7,808.5c0.6,0,0.7-0.2,0.7-1.3
	c0-0.7-0.2-1-0.7-1c-0.5,0-0.7,0.1-0.7,1.2C102,808.3,102.2,808.5,102.7,808.5z"/>
<path class="st3" d="M106.7,809.6c0.5,0,0.6-0.1,0.7-0.7h-0.2l-0.9-3h0.4l0.8,2.6l0.6-2.6h0.4l-0.8,3.3c-0.1,0.5-0.4,0.8-0.8,0.8
	c-0.1,0-0.1,0-0.2,0L106.7,809.6z"/>
<path class="st3" d="M111.4,807.9c0,0.5,0.1,0.6,0.6,0.6c0.6,0,0.7-0.1,0.7-0.6c0-0.5,0-0.4-0.8-0.5c-0.7,0-1-0.2-1-0.8
	s0.1-0.9,1-0.9c0.9,0,1,0.2,1,0.8h-0.4c0-0.5-0.1-0.5-0.7-0.5c-0.6,0-0.6,0.1-0.6,0.5s0,0.5,0.7,0.5c0.9,0,1,0.1,1,0.8
	c0,0.7-0.1,1-1.1,1c-0.7,0-1-0.1-1-1L111.4,807.9z"/>
<path class="st3" d="M114.3,807.4v0.3c0,0.7,0.1,0.8,0.6,0.8c0.5,0,0.7,0,0.7-0.6h0.4v0.1c0,0.6-0.1,0.8-1,0.8s-1.1-0.3-1.1-1.5
	c0-1.2,0.2-1.5,1.1-1.5c0.9,0,1,0.4,1,1.2v0.5H114.3z M115.7,807.1c0-0.6,0-0.9-0.7-0.9c-0.7,0-0.7,0.3-0.7,0.9H115.7z"/>
<path class="st3" d="M116.9,805.8h0.4v0.4c0.1-0.1,0.1-0.2,0.3-0.3c0.1-0.1,0.3-0.1,0.4-0.1c0.5,0,0.7,0.2,0.7,0.8v0.2h-0.3
	c0-0.5,0-0.7-0.5-0.7c-0.5,0-0.6,0.2-0.6,0.6v2.1h-0.4L116.9,805.8z"/>
<path class="st3" d="M119,805.8h0.4l0.7,2.6l0.7-2.6h0.4l-0.8,3h-0.5L119,805.8z"/>
<path class="st3" d="M121.9,804.6h0.4v0.5h-0.4V804.6z M121.9,805.8h0.4v3h-0.4V805.8z"/>
<path class="st3" d="M124.9,806.8c0-0.5-0.1-0.7-0.6-0.7s-0.7,0.1-0.7,1.2s0.1,1.2,0.7,1.2c0.6,0,0.7-0.2,0.7-0.8h0.4v0.2
	c0,0.8-0.4,0.9-1,0.9c-1,0-1.1-0.3-1.1-1.5c0-1.2,0.2-1.5,1.1-1.5c0.9,0,1,0.2,1,1L124.9,806.8z"/>
<path class="st3" d="M126.2,804.6h0.4v0.5h-0.4V804.6z M126.2,805.8h0.4v3h-0.4V805.8z"/>
<path class="st3" d="M128.6,805.8c1,0,1.1,0.3,1.1,1.5s-0.1,1.5-1.1,1.5c-1,0-1.1-0.3-1.1-1.5S127.6,805.8,128.6,805.8z
	 M128.6,808.5c0.6,0,0.7-0.1,0.7-1.2s-0.1-1.2-0.7-1.2c-0.6,0-0.7,0.1-0.7,1.2S128,808.5,128.6,808.5z"/>
<path class="st3" d="M132.7,807.4v0.3c0,0.7,0.1,0.8,0.6,0.8s0.7,0,0.7-0.6h0.4v0.1c0,0.6-0.1,0.8-1,0.8c-0.8,0-1.1-0.3-1.1-1.5
	c0-1.2,0.2-1.5,1.1-1.5c0.9,0,1,0.4,1,1.2v0.5H132.7z M134.1,807.1c0-0.6,0-0.9-0.7-0.9s-0.7,0.3-0.7,0.9H134.1z"/>
<path class="st3" d="M135.3,805.8h0.4v0.4c0.1-0.1,0.2-0.3,0.3-0.3c0.1-0.1,0.3-0.1,0.5-0.1c0.7,0,0.9,0.3,0.9,0.9v2.1h-0.4v-2
	c0-0.3-0.1-0.7-0.6-0.7s-0.8,0.2-0.8,0.8v1.9h-0.4L135.3,805.8z"/>
<path class="st3" d="M140.5,807.4v0.3c0,0.7,0.1,0.8,0.6,0.8c0.5,0,0.7,0,0.7-0.6h0.4v0.1c0,0.6-0.1,0.8-1,0.8s-1.1-0.3-1.1-1.5
	c0-1.2,0.2-1.5,1.1-1.5s1,0.4,1,1.2v0.5H140.5z M141.9,807.1c0-0.6,0-0.9-0.7-0.9c-0.7,0-0.7,0.3-0.7,0.9H141.9z"/>
<path class="st3" d="M143.1,805.8h0.4v0.5c0.1-0.2,0.2-0.3,0.3-0.4c0.1-0.1,0.3-0.1,0.5-0.1c0.4,0,0.7,0.1,0.9,0.5
	c0.1-0.2,0.2-0.3,0.4-0.4c0.2-0.1,0.3-0.1,0.5-0.1c0.1,0,0.2,0,0.4,0s0.2,0.1,0.3,0.2c0.1,0.1,0.2,0.2,0.2,0.3c0,0.1,0,0.2,0,0.4
	v2.2h-0.4v-1.9c0-0.6-0.2-0.7-0.6-0.7c-0.4,0-0.7,0.2-0.7,0.8v1.9h-0.4v-2.1c0-0.5-0.2-0.6-0.6-0.6s-0.8,0.3-0.8,1v1.7h-0.4
	L143.1,805.8z"/>
<path class="st3" d="M147.8,804.6h0.4v1.6c0.1-0.1,0.2-0.3,0.3-0.3c0.1-0.1,0.3-0.1,0.5-0.1c0.8,0,1,0.4,1,1.5s-0.2,1.5-1.1,1.5
	c-0.4,0-0.6-0.1-0.8-0.4v0.4h-0.4V804.6z M148.9,806.2c-0.5,0-0.7,0.3-0.7,1c0,1.1,0.1,1.3,0.7,1.3c0.6,0,0.7-0.1,0.7-1.2
	S149.5,806.2,148.9,806.2L148.9,806.2z"/>
<path class="st3" d="M152.6,808.6c-0.1,0.1-0.2,0.2-0.4,0.3c-0.2,0.1-0.3,0.1-0.5,0c-0.8,0-0.9-0.4-0.9-0.9s0.1-0.9,0.9-0.9
	c0.6,0,0.7,0.1,0.8,0.3v-0.5c0-0.4,0-0.6-0.7-0.6s-0.6,0.2-0.6,0.5h-0.4v-0.2c0-0.4,0.1-0.7,1-0.7s1,0.3,1,0.8v2.2h-0.3L152.6,808.6
	z M151.9,808.5c0.5,0,0.7-0.1,0.7-0.6c0-0.5-0.2-0.6-0.7-0.6s-0.7,0.1-0.7,0.6C151.2,808.4,151.4,808.5,151.9,808.5L151.9,808.5z"/>
<path class="st3" d="M153.9,804.6h0.4v4.2h-0.4V804.6z"/>
<path class="st3" d="M157,808.6c-0.1,0.1-0.2,0.2-0.4,0.3c-0.2,0.1-0.3,0.1-0.5,0c-0.8,0-0.9-0.4-0.9-0.9s0.1-0.9,0.9-0.9
	c0.6,0,0.7,0.1,0.8,0.3v-0.5c0-0.4,0-0.6-0.7-0.6s-0.6,0.2-0.6,0.5h-0.4v-0.2c0-0.4,0.1-0.7,1-0.7s1,0.3,1,0.8v2.2H157L157,808.6z
	 M156.3,808.5c0.5,0,0.7-0.1,0.7-0.6c0-0.5-0.2-0.6-0.7-0.6s-0.7,0.1-0.7,0.6C155.6,808.4,155.8,808.5,156.3,808.5L156.3,808.5z"/>
<path class="st3" d="M158.3,805.8h0.4v3.5c0,0.3-0.2,0.5-0.5,0.5H158v-0.3c0.2,0,0.3,0,0.3-0.2V805.8z M158.3,804.6h0.4v0.5h-0.4
	V804.6z"/>
<path class="st3" d="M160,807.4v0.3c0,0.7,0.1,0.8,0.6,0.8c0.5,0,0.7,0,0.7-0.6h0.4v0.1c0,0.6-0.1,0.8-1,0.8s-1.1-0.3-1.1-1.5
	c0-1.2,0.2-1.5,1.1-1.5c0.9,0,1,0.4,1,1.2v0.5H160z M161.4,807.1c0-0.6,0-0.9-0.7-0.9c-0.7,0-0.7,0.3-0.7,0.9H161.4z"/>
<path class="st3" d="M163,807.9c0,0.5,0.1,0.6,0.6,0.6s0.7-0.1,0.7-0.6c0-0.5,0-0.4-0.8-0.5c-0.8,0-1-0.2-1-0.8s0.1-0.9,1-0.9
	s1.1,0.2,1.1,0.8h-0.4c0-0.5-0.1-0.5-0.7-0.5c-0.6,0-0.6,0.1-0.6,0.5s0.1,0.5,0.7,0.5c0.9,0,1,0.1,1,0.8c0,0.7-0.1,1-1.1,1
	c-0.7,0-1-0.1-1-1L163,807.9z"/>
<path class="st4" d="M78.4,780.5L78.4,780.5l-19.4-9.7l-19.3,9.7h0l0,0h0h0l19.4,9.7L78.4,780.5z"/>
<path class="st5" d="M59.1,770.8L59.1,770.8l-19.4,9.7h0l0,0h0h0l19.4,9.7l0,0V770.8z"/>
<path class="st5" d="M59,791.7l-18,6V809l18.1,10.7l16.9-9.9v-12.4L59,791.7z"/>
<path class="st4" d="M59,791.7l-16.9,5.7v12.4l16.9,9.8l0,0L59,791.7L59,791.7z"/>
<path class="st6" d="M70.5,813.1l8.8-5.1v-26.6l-20.2,10.1v13.7l11.3-6.5V813.1z"/>
<path class="st1" d="M47.8,813.1v-14.5l11.3,6.5v-13.7L39,781.3v26.6L47.8,813.1z"/>
<g>
	<path class="st4" d="M822.2,32.6L822.2,32.6L822.2,32.6L757.8,0.2l-64.3,32.3h0l0,0h0h0l64.4,32.3L822.2,32.6L822.2,32.6
		L822.2,32.6z"/>
	<path class="st5" d="M757.9,0.3l-0.1-0.1l-64.3,32.3h0l0,0h0h0l64.4,32.3l0.1,0V0.3z"/>
	<path class="st5" d="M757.8,69.9l-60,19.9v37.5l60.1,35.6l56.3-32.8V88.8L757.8,69.9z"/>
	<path class="st4" d="M757.8,69.9l-56.1,18.9v41.3l56.2,32.7l0.1,0V70L757.8,69.9z"/>
	<path class="st6" d="M795.7,140.8l29.3-17.1V35.1l-67,33.6v45.5l37.7-21.7V140.8z"/>
	<path class="st1" d="M720.4,140.8V92.6l37.7,21.7V68.7l-67-33.6v88.6L720.4,140.8z"/>
</g>
<g>
	<path class="st1" d="M224.8,34.4h20.5l15.1,28l15.1-28h20.5V78h-13V46.6H283l-17.5,31.3h-10l-17.5-31.3h-0.1v31.3h-13V34.4z"/>
	<path class="st1" d="M324.5,34.4h17.4l24,43.6H351l-4.1-7.7h-27.1l-3.9,7.7h-14.9L324.5,34.4z M324.7,60.9h17.1l-8.7-16.4
		L324.7,60.9z"/>
	<path class="st1" d="M371.1,34.4h40.4c13.4,0,18.1,4.4,18.1,15.2v13.2c0,10.8-4.7,15.2-18.1,15.2h-40.4V34.4z M384.5,66.7h23.7
		c5.7,0,7.9-1.6,7.9-7.8V53c0-6.2-2.2-7.8-7.9-7.8h-23.7V66.7z"/>
	<path class="st7" d="M224.8,86.7h21.6c7.6,0,9.4,3.8,9.4,8.9v2.2c0,3.9-1.7,8.3-7.3,8.3h-15.8v6.5h-8L224.8,86.7z M232.8,99.7h12.4
		c1.9,0,2.6-1.2,2.6-2.8v-1c0-1.8-0.9-2.8-3.3-2.8h-11.7V99.7z"/>
	<path class="st7" d="M269.7,86.7h10.4l14.3,25.9h-8.9l-2.5-4.6h-16.1l-2.3,4.6h-8.9L269.7,86.7z M269.9,102.5H280l-5.2-9.8
		L269.9,102.5z"/>
	<path class="st7" d="M296.6,95.8c0-7.6,4.3-9.4,11.4-9.4h9.4c11.3,0,12.8,2.4,12.7,9.8h-8v-0.7c0-1.9-1.4-2.4-3.7-2.4h-8.7
		c-4.2,0-5,2-5,5.2v2.8c0,3.8,0.8,5.2,4.5,5.2h8.5c3.6,0,4.6-0.4,4.6-3.6h8v2.4c0,4.4-1.6,7.8-9.6,7.8H308c-7.2,0-11.4-1.8-11.4-9.4
		V95.8z"/>
	<path class="st7" d="M335.2,86.7h8v9.5h3.7l10-9.5h10.8l-14,12.7l15.7,13.3h-11.3l-11.5-10h-3.5v10h-8L335.2,86.7z"/>
	<path class="st7" d="M383.9,86.7h10.4l14.2,25.9h-8.9l-2.5-4.6H381l-2.3,4.6h-8.9L383.9,86.7z M384,102.5h10.2l-5.2-9.8L384,102.5z
		"/>
	<path class="st7" d="M410.7,95.8c0-7.6,4.3-9.4,11.4-9.4h12c9,0,10.3,3.3,10.3,8.3v0.8h-7.8c0-2.6-1.5-2.9-4-2.9H424
		c-4,0-5,1-5,5.4v3.3c0,4.4,1,5.4,5,5.4h8.5c2.1,0,4.2-0.3,4.2-2.8v-0.8h-9.9v-5.4h17.8v7.4c0,7.5-3.9,7.8-12.8,7.8h-9.6
		c-7.2,0-11.4-1.8-11.4-9.4V95.8z"/>
	<path class="st7" d="M449.8,86.7h8v25.9h-8V86.7z"/>
	<path class="st7" d="M463.5,86.7h12.3l14.9,18.8h0.1V86.7h8v25.9h-12.4l-14.9-18.8h-0.1v18.8h-8L463.5,86.7z"/>
	<path class="st7" d="M503.6,95.8c0-7.6,4.3-9.4,11.4-9.4h12c9,0,10.3,3.3,10.3,8.3v0.8h-7.9c0-2.6-1.5-2.9-4-2.9h-8.6
		c-4,0-5,1-5,5.4v3.3c0,4.4,1,5.4,5,5.4h8.5c2.1,0,4.1-0.3,4.1-2.8v-0.8h-9.9v-5.4h17.9v7.4c0,7.5-3.9,7.8-12.8,7.8h-9.6
		c-7.2,0-11.4-1.8-11.4-9.4V95.8z"/>
	<path class="st3" d="M235.9,130.7c0,3.3-1,4-4.6,4c-4,0-5.3-0.8-5.3-5.2v-5.1c0-4.4,1.4-5.2,5.3-5.2c3.3,0,4.6,0.4,4.6,3.9v1.1
		h-1.3v-1c0-2.3-0.8-2.6-3.3-2.6c-3.4,0-3.9,0.5-3.9,3.8v4.9c0,3.3,0.4,3.8,3.9,3.8c3,0,3.3-0.7,3.3-2.7v-1h1.3V130.7z"/>
	<path class="st3" d="M244.9,133.6c-0.8,0.8-1.5,1.1-3.1,1.1c-2.7,0-3.3-1.3-3.3-3.3s0.5-3.3,3.3-3.3c2,0,2.4,0.2,2.9,1v-1.9
		c0-1.6-0.2-2.1-2.4-2.1s-2.2,0.5-2.2,1.9h-1.3v-0.6c0-1.3,0.3-2.5,3.6-2.5c3,0,3.6,1,3.6,3v7.7h-1.2L244.9,133.6z M242.4,133.3
		c1.8,0,2.5-0.4,2.5-2.1c0-1.6-0.8-2.1-2.5-2.1c-1.8,0-2.5,0.4-2.5,2.1C239.8,132.9,240.6,133.3,242.4,133.3z"/>
	<path class="st3" d="M249.5,119.5h1.3v15h-1.3V119.5z"/>
	<path class="st3" d="M254.6,119.5h1.3v1.8h-1.3V119.5z M254.6,123.9h1.3v10.6h-1.3V123.9z"/>
	<path class="st3" d="M265.6,133.2L265.6,133.2c-0.5,1.1-1.3,1.5-2.8,1.5c-2.9,0-3.8-1.3-3.8-5.5c0-4.2,0.8-5.5,3.5-5.5
		c0.6-0.1,1.2,0,1.7,0.3c0.5,0.3,1,0.7,1.2,1.2h0.1v-5.8h1.3v15h-1.3V133.2z M263.1,133.4c2.2,0,2.5-0.8,2.5-4.8
		c0-2.6-0.6-3.5-2.5-3.5c-2.1,0-2.5,0.5-2.5,4.1C260.5,132.9,261,133.3,263.1,133.4L263.1,133.4z"/>
	<path class="st3" d="M276.3,133.6c-0.4,0.4-0.9,0.7-1.4,0.9c-0.5,0.2-1.1,0.2-1.7,0.2c-2.7,0-3.3-1.3-3.3-3.3s0.5-3.3,3.3-3.3
		c2,0,2.5,0.2,2.9,1h0v-1.9c0-1.6-0.1-2.1-2.4-2.1c-2.2,0-2.2,0.5-2.2,1.9h-1.3v-0.6c0-1.3,0.3-2.5,3.6-2.5c2.9,0,3.6,1,3.6,3v7.7
		h-1.2V133.6z M273.8,133.4c1.8,0,2.5-0.4,2.5-2.1s-0.8-2.1-2.5-2.1c-1.8,0-2.5,0.4-2.5,2.1S272,133.3,273.8,133.4L273.8,133.4z"/>
	<path class="st3" d="M286.9,133.2c-0.2,0.5-0.6,0.9-1.1,1.2c-0.5,0.3-1.1,0.4-1.6,0.3c-3,0-3.8-1.3-3.8-5.5c0-4.2,0.8-5.5,3.6-5.5
		c0.6-0.1,1.2,0,1.7,0.3c0.5,0.3,1,0.7,1.2,1.2v-5.8h1.3v15h-1.3V133.2z M284.4,133.4c2.2,0,2.5-0.8,2.5-4.8c0-2.6-0.6-3.5-2.5-3.5
		c-1.9,0-2.5,0.5-2.5,4.1C281.8,132.9,282.3,133.3,284.4,133.4L284.4,133.4z"/>
	<path class="st3" d="M298.4,137.1c1.7,0,2-0.3,2.5-2.6h-0.6l-3.1-10.6h1.3l2.7,9.3l2.3-9.3h1.3l-2.8,11.7c-0.5,1.9-1.3,2.8-3,2.8
		c-0.2,0-0.4,0-0.6-0.1L298.4,137.1z"/>
	<path class="st3" d="M314.9,131.3c0,1.8,0.3,2.2,2.3,2.2c2.1,0,2.5-0.3,2.5-2.1c0-1.4-0.1-1.5-2.7-1.6c-2.7-0.2-3.4-0.5-3.4-2.9
		c0-2.3,0.4-3.1,3.6-3.1s3.7,0.7,3.7,2.9h-1.3c0-1.6-0.4-1.7-2.4-1.7s-2.2,0.2-2.2,1.8c0,1.5,0.2,1.6,2.4,1.7
		c3.1,0.2,3.6,0.4,3.6,2.8c0,2.5-0.5,3.4-3.9,3.4c-2.4,0-3.6-0.3-3.6-3.4H314.9z"/>
	<path class="st3" d="M325.3,129.6v1c0,2.3,0.4,3,2.2,3c2.1,0,2.6,0,2.6-2.1h1.4v0.4c0,2.1-0.5,2.9-3.7,2.9c-3.5,0-3.9-1.2-3.9-5.5
		c0-4.3,0.7-5.5,3.9-5.5c3.2,0,3.7,1.3,3.7,4.2v1.6L325.3,129.6z M330.1,128.2c0-2.2,0-3.2-2.4-3.2s-2.4,1-2.4,3.2H330.1z"/>
	<path class="st3" d="M334.5,123.9h1.3v1.3h0.1c0.2-0.5,0.5-0.9,1-1.2c0.4-0.3,1-0.4,1.5-0.3c1.7,0,2.5,0.7,2.5,2.8v0.9h-1.2
		c0-2-0.2-2.5-1.7-2.5c-1.3,0-2,0.7-2,2.2v7.4h-1.4V123.9z"/>
	<path class="st3" d="M342,123.9h1.4l2.5,9.3l2.5-9.3h1.4l-3,10.6H345L342,123.9z"/>
	<path class="st3" d="M352.3,119.5h1.3v1.8h-1.3V119.5z M352.3,123.9h1.3v10.6h-1.3V123.9z"/>
	<path class="st3" d="M362.9,127.5c0-1.9-0.4-2.5-2.1-2.5c-2.1,0-2.5,0.3-2.5,4.3c0,3.9,0.3,4.3,2.5,4.3c1.9,0,2.3-0.5,2.3-2.8h1.3
		v0.7c0,2.7-1.3,3.3-3.6,3.3c-3.5,0-3.9-1.2-3.9-5.5c0-4.3,0.7-5.5,3.9-5.5c2.9,0,3.5,0.9,3.5,3.7L362.9,127.5z"/>
	<path class="st3" d="M367.4,119.5h1.3v1.8h-1.3V119.5z M367.4,123.9h1.3v10.6h-1.3V123.9z"/>
	<path class="st3" d="M375.8,123.8c3.5,0,3.9,1.2,3.9,5.5c0,4.4-0.5,5.5-3.9,5.5s-3.9-1.1-3.9-5.5
		C371.9,125,372.3,123.8,375.8,123.8z M375.8,133.5c2.1,0,2.5-0.3,2.5-4.3c0-3.9-0.3-4.3-2.5-4.3s-2.5,0.3-2.5,4.3
		C373.4,133.2,373.7,133.5,375.8,133.5z"/>
	<path class="st3" d="M390.5,129.6v1c0,2.3,0.4,3,2.2,3c2.1,0,2.6,0,2.6-2.1h1.3v0.4c0,2.1-0.5,2.9-3.7,2.9c-3.5,0-3.9-1.2-3.9-5.5
		c0-4.3,0.7-5.5,3.9-5.5c3.2,0,3.7,1.3,3.7,4.2v1.6L390.5,129.6z M395.3,128.2c0-2.2,0-3.2-2.4-3.2s-2.4,1-2.4,3.2H395.3z"/>
	<path class="st3" d="M399.7,123.9h1.3v1.4c0.3-0.5,0.7-1,1.2-1.2c0.5-0.3,1.1-0.4,1.7-0.3c2.5,0,3.1,1.2,3.1,3.3v7.5h-1.3v-7.2
		c0-1.2-0.3-2.4-2-2.4s-2.7,0.6-2.7,2.9v6.7h-1.3V123.9z"/>
	<path class="st3" d="M418,129.6v1c0,2.3,0.4,3,2.2,3c2.1,0,2.6,0,2.6-2.1h1.3v0.4c0,2.1-0.5,2.9-3.7,2.9c-3.5,0-3.9-1.2-3.9-5.5
		c0-4.3,0.7-5.5,3.9-5.5c3.2,0,3.7,1.3,3.7,4.2v1.6L418,129.6z M422.8,128.2c0-2.2,0-3.2-2.4-3.2s-2.4,1-2.4,3.2H422.8z"/>
	<path class="st3" d="M427.2,123.9h1.3v1.6c0.2-0.5,0.6-1,1.1-1.3c0.5-0.3,1.1-0.5,1.7-0.4c1.4,0,2.5,0.3,3,1.7
		c0.3-0.6,0.8-1,1.3-1.3c0.6-0.3,1.2-0.4,1.9-0.4c2.1,0,3.2,1,3.2,3.1v7.6h-1.3v-6.9c0-2.1-0.9-2.6-2.2-2.6c-1.7,0-2.5,0.7-2.5,2.8
		v6.7h-1.3v-7.3c0-1.6-0.7-2.1-2.1-2.1c-1.9,0-2.7,1.2-2.7,3.4v6.1H427L427.2,123.9z"/>
	<path class="st3" d="M443.9,119.5h1.3v5.8c0.3-0.5,0.7-0.9,1.2-1.2c0.5-0.3,1.1-0.4,1.7-0.3c2.7,0,3.5,1.3,3.5,5.5
		c0,4.2-0.8,5.5-3.8,5.5c-1.5,0-2.2-0.4-2.7-1.5v1.3h-1.3V119.5z M447.8,125.1c-1.9,0-2.5,0.9-2.5,3.5c0,4,0.3,4.8,2.5,4.8
		s2.5-0.5,2.5-4.1C450.3,125.6,449.8,125.1,447.8,125.1z"/>
	<path class="st3" d="M460.8,133.6c-0.4,0.4-0.9,0.7-1.4,0.9c-0.5,0.2-1.1,0.2-1.7,0.2c-2.7,0-3.3-1.3-3.3-3.3s0.5-3.3,3.3-3.3
		c2,0,2.5,0.2,2.9,1v-1.9c0-1.6-0.1-2.1-2.3-2.1c-2.2,0-2.2,0.5-2.2,1.9h-1.3v-0.6c0-1.3,0.3-2.5,3.6-2.5c3,0,3.6,1,3.6,3v7.7h-1.2
		L460.8,133.6z M458.3,133.4c1.8,0,2.5-0.4,2.5-2.1s-0.8-2.1-2.5-2.1c-1.8,0-2.5,0.4-2.5,2.1S456.5,133.3,458.3,133.4L458.3,133.4z"
		/>
	<path class="st3" d="M465.4,119.5h1.3v15h-1.3V119.5z"/>
	<path class="st3" d="M476.3,133.6c-0.4,0.4-0.9,0.7-1.4,0.9c-0.5,0.2-1.1,0.2-1.7,0.2c-2.7,0-3.3-1.3-3.3-3.3s0.5-3.3,3.3-3.3
		c2,0,2.5,0.2,2.9,1v-1.9c0-1.6-0.1-2.1-2.4-2.1s-2.2,0.5-2.2,1.9h-1.3v-0.6c0-1.3,0.3-2.5,3.6-2.5c3,0,3.6,1,3.6,3v7.7h-1.2
		L476.3,133.6z M473.8,133.4c1.8,0,2.5-0.4,2.5-2.1s-0.8-2.1-2.5-2.1c-1.8,0-2.5,0.4-2.5,2.1S472,133.3,473.8,133.4L473.8,133.4z"/>
	<path class="st3" d="M480.9,123.9h1.3v12.5c0,1.2-0.6,1.8-1.9,1.8c-0.2,0-0.3,0-0.5,0v-1.2c0.8,0,1-0.1,1-0.8L480.9,123.9z
		 M480.9,119.5h1.3v1.8h-1.3V119.5z"/>
	<path class="st3" d="M486.9,129.6v1c0,2.3,0.4,3,2.2,3c2.1,0,2.6,0,2.6-2.1h1.3v0.4c0,2.1-0.5,2.9-3.7,2.9c-3.5,0-3.9-1.2-3.9-5.5
		c0-4.3,0.7-5.5,3.9-5.5c3.2,0,3.7,1.3,3.7,4.2v1.6L486.9,129.6z M491.7,128.2c0-2.2,0-3.2-2.4-3.2c-2.4,0-2.4,1-2.4,3.2H491.7z"/>
	<path class="st3" d="M497.5,131.3c0,1.8,0.3,2.2,2.3,2.2c2.1,0,2.5-0.3,2.5-2.1c0-1.4-0.1-1.5-2.7-1.6c-2.7-0.2-3.4-0.5-3.4-2.9
		c0-2.3,0.4-3.1,3.6-3.1s3.7,0.7,3.7,2.9h-1.3c0-1.6-0.4-1.7-2.4-1.7s-2.2,0.2-2.2,1.8c0,1.5,0.2,1.6,2.4,1.7
		c3.1,0.2,3.6,0.4,3.6,2.8c0,2.5-0.5,3.4-3.9,3.4c-2.4,0-3.5-0.3-3.5-3.4H497.5z"/>
	<path class="st4" d="M198.4,34.4L198.4,34.4L198.4,34.4L129.9,0L61.5,34.3h0l0,0h0h0L130,68.7L198.4,34.4L198.4,34.4L198.4,34.4z"
		/>
	<path class="st5" d="M130,0.1L129.9,0L61.5,34.3h0l0,0h0h0L130,68.7l0.1,0V0.1z"/>
	<path class="st5" d="M129.9,74L66.1,95.2V135l63.9,37.8l59.9-34.9V94.2L129.9,74z"/>
	<path class="st4" d="M129.9,74L70.2,94.1v44l59.8,34.8l0.1,0V74.1L129.9,74z"/>
	<path class="st6" d="M170.2,149.5l31.2-18.2V37.1l-71.3,35.7v48.4l40.1-23V149.5z"/>
	<path class="st1" d="M90.2,149.5V98.3l40.1,23V72.8L59,37.1v94.2L90.2,149.5z"/>
</g>
<path class="st2" d="M314,780.3h5.8l4.3,7.9l4.3-7.9h5.8v12.3h-3.7v-8.9l-5,8.9h-2.8l-5-8.9v8.9H314L314,780.3z"/>
<path class="st2" d="M342.2,780.3h4.9l6.8,12.3h-4.2l-1.2-2.2h-7.7l-1.1,2.2h-4.2L342.2,780.3z M342.3,787.8h4.8l-2.5-4.6
	L342.3,787.8z"/>
<path class="st2" d="M355.4,780.3h11.4c3.8,0,5.1,1.2,5.1,4.3v3.8c0,3-1.3,4.3-5.1,4.3h-11.4V780.3z M359.2,789.5h6.7
	c1.6,0,2.2-0.5,2.2-2.2v-1.7c0-1.8-0.6-2.2-2.2-2.2h-6.7V789.5z"/>
<path class="st2" d="M314,795.2h6.1c2.1,0,2.6,1.1,2.6,2.5v0.7c0,1.1-0.5,2.4-2.1,2.4h-4.5v1.8H314V795.2z M316.3,798.8h3.5
	c0.1,0,0.2,0,0.3,0c0.1,0,0.2-0.1,0.3-0.2c0.1-0.1,0.1-0.2,0.2-0.3s0-0.2,0-0.3v-0.3c0-0.5-0.2-0.8-0.9-0.8h-3.3V798.8z"/>
<path class="st2" d="M326.7,795.2h2.9l4,7.3h-2.5l-0.7-1.3h-4.6l-0.7,1.3h-2.5L326.7,795.2z M326.7,799.6h2.9l-1.5-2.8L326.7,799.6z
	"/>
<path class="st2" d="M334.3,797.7c0-2.2,1.2-2.7,3.2-2.7h2.6c3.2,0,3.6,0.7,3.6,2.8h-2.2v-0.2c0-0.5-0.4-0.7-1.1-0.7H338
	c-1.2,0-1.4,0.6-1.4,1.5v0.8c0,1.1,0.2,1.5,1.3,1.5h2.4c1,0,1.3-0.1,1.3-1h2.2v0.6c0,1.2-0.4,2.2-2.7,2.2h-3.6c-2,0-3.2-0.5-3.2-2.7
	V797.7z"/>
<path class="st2" d="M345.2,795.2h2.2v2.7h1.1l2.8-2.7h3.1l-4,3.6l4.4,3.8h-3.2l-3.3-2.8h-1v2.8h-2.2V795.2z"/>
<path class="st2" d="M359,795.2h2.9l4,7.3h-2.4l-0.7-1.3h-4.6l-0.7,1.3H355L359,795.2z M359,799.6h2.9l-1.4-2.8L359,799.6z"/>
<path class="st2" d="M366.6,797.7c0-2.2,1.2-2.7,3.2-2.7h3.4c2.5,0,2.9,0.9,2.9,2.4v0.2h-2.2c0-0.7-0.4-0.8-1.1-0.8h-2.4
	c-1.1,0-1.4,0.3-1.4,1.5v1c0,1.3,0.3,1.5,1.4,1.5h2.4c0.6,0,1.2-0.1,1.2-0.8v-0.2h-2.8v-1.5h5v2c0,2.1-1.1,2.2-3.6,2.2h-2.7
	c-2,0-3.2-0.5-3.2-2.7V797.7z"/>
<path class="st2" d="M377.6,795.2h2.2v7.3h-2.2V795.2z"/>
<path class="st2" d="M381.5,795.2h3.5l4.2,5.3v-5.3h2.2v7.3H388l-4.2-5.3v5.3h-2.2L381.5,795.2z"/>
<path class="st2" d="M392.9,797.7c0-2.2,1.2-2.7,3.2-2.7h3.4c2.6,0,2.9,0.9,2.9,2.4v0.2h-2.2c0-0.7-0.4-0.8-1.1-0.8h-2.5
	c-1.1,0-1.4,0.3-1.4,1.5v1c0,1.3,0.3,1.5,1.4,1.5h2.4c0.6,0,1.2-0.1,1.2-0.8v-0.2h-2.8v-1.5h5.1v2c0,2.1-1.1,2.2-3.6,2.2h-2.7
	c-2,0-3.2-0.5-3.2-2.7L392.9,797.7z"/>
<path class="st2" d="M317.1,807.6c0,0.9-0.3,1.1-1.3,1.1s-1.5-0.2-1.5-1.5v-1.4c0-1.2,0.4-1.5,1.5-1.5c0.9,0,1.3,0.1,1.3,1.1v0.3
	h-0.4v-0.3c0-0.7-0.2-0.7-0.9-0.7c-1,0-1.1,0.1-1.1,1.1v1.4c0,0.9,0.1,1.1,1.1,1.1s0.9-0.2,0.9-0.8v-0.3h0.4V807.6z"/>
<path class="st2" d="M319.7,808.4c-0.1,0.1-0.2,0.2-0.4,0.3c-0.2,0.1-0.3,0.1-0.5,0c-0.8,0-0.9-0.4-0.9-0.9s0.1-0.9,0.9-0.9
	c0.6,0,0.7,0.1,0.8,0.3v-0.5c0-0.4,0-0.6-0.7-0.6c-0.7,0-0.6,0.2-0.6,0.5H318v-0.2c0-0.4,0.1-0.7,1-0.7s1,0.3,1,0.8v2.2h-0.4
	L319.7,808.4z M319,808.4c0.5,0,0.7-0.1,0.7-0.6c0-0.5-0.2-0.6-0.7-0.6s-0.7,0.1-0.7,0.6C318.2,808.2,318.5,808.3,319,808.4
	L319,808.4z"/>
<path class="st2" d="M321,804.4h0.4v4.2H321V804.4z"/>
<path class="st2" d="M322.5,804.4h0.4v0.5h-0.4V804.4z M322.5,805.7h0.4v3h-0.4V805.7z"/>
<path class="st2" d="M325.5,808.3c-0.1,0.3-0.3,0.4-0.8,0.4c-0.8,0-1.1-0.4-1.1-1.6c0-1.2,0.2-1.5,1-1.5c0.2,0,0.3,0,0.5,0.1
	c0.1,0.1,0.3,0.2,0.4,0.3v-1.6h0.4v4.2h-0.4V808.3z M324.8,808.3c0.6,0,0.7-0.2,0.7-1.3c0-0.7-0.2-1-0.7-1c-0.5,0-0.7,0.1-0.7,1.2
	C324.1,808.2,324.2,808.3,324.8,808.3z"/>
<path class="st2" d="M328.6,808.4c-0.1,0.1-0.2,0.2-0.4,0.3c-0.2,0.1-0.3,0.1-0.5,0c-0.8,0-0.9-0.4-0.9-0.9s0.1-0.9,0.9-0.9
	c0.6,0,0.7,0.1,0.8,0.3v-0.5c0-0.4,0-0.6-0.7-0.6s-0.6,0.2-0.6,0.5h-0.4v-0.2c0-0.4,0.1-0.7,1-0.7c0.9,0,1,0.3,1,0.8v2.2h-0.3
	L328.6,808.4z M327.9,808.4c0.5,0,0.7-0.1,0.7-0.6c0-0.5-0.2-0.6-0.7-0.6s-0.7,0.1-0.7,0.6C327.1,808.2,327.4,808.3,327.9,808.4
	L327.9,808.4z"/>
<path class="st2" d="M331.6,808.3c-0.1,0.1-0.2,0.3-0.3,0.3c-0.1,0.1-0.3,0.1-0.5,0.1c-0.8,0-1.1-0.4-1.1-1.6c0-1.2,0.2-1.5,1-1.5
	c0.2,0,0.3,0,0.5,0.1c0.1,0.1,0.3,0.2,0.4,0.3v-1.6h0.4v4.2h-0.4V808.3z M330.8,808.3c0.6,0,0.7-0.2,0.7-1.3c0-0.7-0.2-1-0.7-1
	s-0.7,0.1-0.7,1.2C330.1,808.2,330.3,808.3,330.8,808.3z"/>
<path class="st2" d="M334.8,809.4c0.5,0,0.6-0.1,0.7-0.7h-0.2l-0.9-3h0.4l0.8,2.6l0.6-2.6h0.4l-0.8,3.3c-0.1,0.5-0.4,0.8-0.8,0.8
	c-0.1,0-0.1,0-0.2,0L334.8,809.4z"/>
<path class="st2" d="M339.5,807.8c0,0.5,0.1,0.6,0.6,0.6s0.7-0.1,0.7-0.6s0-0.4-0.8-0.5c-0.8,0-1-0.1-1-0.8c0-0.7,0.1-0.9,1-0.9
	s1,0.2,1,0.8h-0.4c0-0.5-0.1-0.5-0.7-0.5s-0.6,0-0.6,0.5c0,0.5,0.1,0.4,0.7,0.5c0.9,0,1,0.1,1,0.8c0,0.7-0.1,1-1.1,1
	c-0.7,0-1-0.1-1-1L339.5,807.8z"/>
<path class="st2" d="M342.4,807.3v0.3c0,0.6,0.1,0.8,0.6,0.8c0.5,0,0.7,0,0.7-0.6h0.4v0.1c0,0.6-0.1,0.8-1,0.8
	c-0.9,0-1.1-0.3-1.1-1.5c0-1.2,0.2-1.5,1.1-1.5s1,0.4,1,1.2v0.4H342.4z M343.8,806.9c0-0.6,0-0.9-0.7-0.9s-0.7,0.3-0.7,0.9H343.8z"
	/>
<path class="st2" d="M345,805.7h0.4v0.4c0.1-0.1,0.1-0.2,0.3-0.3c0.1-0.1,0.3-0.1,0.4-0.1c0.5,0,0.7,0.2,0.7,0.8v0.2h-0.3
	c0-0.5-0.1-0.7-0.5-0.7c-0.4,0-0.6,0.2-0.6,0.6v2.1H345L345,805.7z"/>
<path class="st2" d="M347.1,805.7h0.4l0.7,2.6l0.7-2.6h0.4l-0.8,3H348L347.1,805.7z"/>
<path class="st2" d="M350,804.4h0.4v0.5h-0.4L350,804.4z M350,805.7h0.4v3h-0.4L350,805.7z"/>
<path class="st2" d="M353,806.7c0-0.5-0.1-0.7-0.6-0.7s-0.7,0.1-0.7,1.2s0.1,1.2,0.7,1.2s0.6-0.1,0.6-0.8h0.4v0.2
	c0,0.8-0.4,0.9-1,0.9c-1,0-1.1-0.3-1.1-1.5c0-1.2,0.2-1.5,1.1-1.5s1,0.2,1,1L353,806.7z"/>
<path class="st2" d="M354.3,804.4h0.4v0.5h-0.4V804.4z M354.3,805.7h0.4v3h-0.4V805.7z"/>
<path class="st2" d="M356.7,805.7c1,0,1.1,0.4,1.1,1.5s-0.1,1.5-1.1,1.5c-1,0-1.1-0.3-1.1-1.5S355.7,805.7,356.7,805.7z
	 M356.7,808.4c0.6,0,0.7-0.1,0.7-1.2s-0.1-1.2-0.7-1.2c-0.6,0-0.7,0.1-0.7,1.2S356.1,808.4,356.7,808.4z"/>
<path class="st2" d="M360.8,807.3v0.3c0,0.6,0.1,0.8,0.6,0.8s0.7,0,0.7-0.6h0.4v0.1c0,0.6-0.1,0.8-1,0.8c-0.9,0-1.1-0.3-1.1-1.5
	c0-1.2,0.2-1.5,1.1-1.5s1,0.4,1,1.2v0.4H360.8z M362.2,806.9c0-0.6,0-0.9-0.7-0.9s-0.7,0.3-0.7,0.9H362.2z"/>
<path class="st2" d="M363.5,805.7h0.4v0.4c0.1-0.2,0.2-0.3,0.3-0.3c0.1-0.1,0.3-0.1,0.5-0.1c0.7,0,0.9,0.3,0.9,0.9v2.1h-0.4v-2
	c0-0.3-0.1-0.7-0.6-0.7s-0.8,0.2-0.8,0.8v1.9h-0.4V805.7z"/>
<path class="st2" d="M368.6,807.3v0.3c0,0.6,0.1,0.8,0.6,0.8c0.5,0,0.7,0,0.7-0.6h0.4v0.1c0,0.6-0.1,0.8-1,0.8
	c-0.9,0-1.1-0.3-1.1-1.5c0-1.2,0.2-1.5,1.1-1.5s1,0.4,1,1.2v0.4H368.6z M370,806.9c0-0.6,0-0.9-0.7-0.9s-0.7,0.3-0.7,0.9H370z"/>
<path class="st2" d="M371.2,805.7h0.4v0.5c0.1-0.2,0.2-0.3,0.3-0.4c0.1-0.1,0.3-0.1,0.5-0.1c0.4,0,0.7,0.1,0.9,0.5
	c0.1-0.2,0.2-0.3,0.4-0.4s0.3-0.1,0.5-0.1c0.1,0,0.2,0,0.4,0c0.1,0,0.2,0.1,0.3,0.2c0.1,0.1,0.2,0.2,0.2,0.3c0,0.1,0.1,0.2,0,0.4
	v2.2h-0.4v-1.9c0-0.6-0.2-0.7-0.6-0.7c-0.4,0-0.7,0.2-0.7,0.8v1.9H373v-2.1c0-0.5-0.2-0.6-0.6-0.6c-0.4,0-0.8,0.3-0.8,1v1.7h-0.4
	L371.2,805.7z"/>
<path class="st2" d="M376,804.4h0.4v1.6c0.1-0.1,0.2-0.3,0.4-0.3c0.1-0.1,0.3-0.1,0.5-0.1c0.8,0,1,0.4,1,1.5s-0.2,1.5-1.1,1.5
	c-0.4,0-0.6-0.1-0.8-0.4v0.4H376V804.4z M377,806c-0.5,0-0.7,0.3-0.7,1c0,1.1,0.1,1.3,0.7,1.3c0.6,0,0.7-0.1,0.7-1.2
	C377.8,806.2,377.6,806,377,806z"/>
<path class="st2" d="M380.7,808.4c-0.1,0.1-0.2,0.2-0.4,0.3c-0.2,0.1-0.3,0.1-0.5,0c-0.8,0-0.9-0.4-0.9-0.9s0.1-0.9,0.9-0.9
	c0.6,0,0.7,0.1,0.8,0.3v-0.5c0-0.4,0-0.6-0.7-0.6s-0.6,0.2-0.6,0.5H379v-0.2c0-0.4,0.1-0.7,1-0.7s1,0.3,1,0.8v2.2h-0.3L380.7,808.4z
	 M380,808.4c0.5,0,0.7-0.1,0.7-0.6c0-0.5-0.2-0.6-0.7-0.6s-0.7,0.1-0.7,0.6C379.3,808.2,379.5,808.3,380,808.4L380,808.4z"/>
<path class="st2" d="M382,804.4h0.4v4.2h-0.4L382,804.4z"/>
<path class="st2" d="M385.1,808.4c-0.1,0.1-0.2,0.2-0.4,0.3c-0.2,0.1-0.3,0.1-0.5,0c-0.8,0-0.9-0.4-0.9-0.9s0.1-0.9,0.9-0.9
	c0.6,0,0.7,0.1,0.8,0.3v-0.5c0-0.4,0-0.6-0.7-0.6c-0.7,0-0.6,0.2-0.6,0.5h-0.3v-0.2c0-0.4,0.1-0.7,1-0.7s1,0.3,1,0.8v2.2h-0.4
	L385.1,808.4z M384.5,808.3c0.5,0,0.7-0.1,0.7-0.6c0-0.5-0.2-0.6-0.7-0.6s-0.7,0.1-0.7,0.6C383.7,808.2,383.9,808.3,384.5,808.3z"/>
<path class="st2" d="M386.5,805.7h0.4v3.5c0,0.3-0.2,0.5-0.5,0.5h-0.1v-0.3c0.2,0,0.3,0,0.3-0.2V805.7z M386.5,804.4h0.4v0.5h-0.4
	V804.4z"/>
<path class="st2" d="M388.1,807.3v0.3c0,0.6,0.1,0.8,0.6,0.8s0.7,0,0.7-0.6h0.4v0.1c0,0.6-0.1,0.8-1,0.8s-1.1-0.3-1.1-1.5
	c0-1.2,0.2-1.5,1.1-1.5s1,0.4,1,1.2v0.4H388.1z M389.5,806.9c0-0.6,0-0.9-0.7-0.9s-0.7,0.3-0.7,0.9H389.5z"/>
<path class="st2" d="M391.1,807.8c0,0.5,0.1,0.6,0.7,0.6c0.6,0,0.7-0.1,0.7-0.6s0-0.4-0.8-0.5c-0.8,0-1-0.1-1-0.8
	c0-0.7,0.1-0.9,1-0.9s1,0.2,1,0.8h-0.3c0-0.5-0.1-0.5-0.7-0.5s-0.6,0-0.6,0.5c0,0.5,0,0.4,0.7,0.5c0.9,0,1,0.1,1,0.8
	c0,0.7-0.1,1-1.1,1c-0.7,0-1-0.1-1-1L391.1,807.8z"/>
<path class="st8" d="M286.1,770.8l-19.9,10h0l0,0h0h0l19.9,10V770.8z"/>
<path class="st9" d="M286.1,790.7l19.9-10h0h0h0h0l-19.9-10V790.7z"/>
<path class="st8" d="M286.1,805.1v14.2l11.2-6.5l0-14.1L286.1,805.1z"/>
<path class="st9" d="M286.1,805.1v14.2l-11.2-6.5l0-14.1L286.1,805.1z"/>
<path class="st10" d="M286.1,791.8v12.3l11.9-6.8v15.2l8.8-5.1v-25.9L286.1,791.8z"/>
<path class="st2" d="M286.1,791.8v12.3l-11.9-6.8v15.2l-8.8-5.1v-25.9L286.1,791.8z"/>
<path class="st11" d="M265.5,781.4l20.6-10.6l20.7,10.6v25.9l-20.7,12.1l-20.6-12.1V781.4z"/>
<path class="st8" d="M328.2,865.7l-26,13h0h0l26,13V865.7z"/>
<path class="st9" d="M328.2,891.7l25.9-13h0h0l-25.9-13V891.7z"/>
<path class="st8" d="M328.2,910.5v18.6l14.6-8.5l0-18.4L328.2,910.5z"/>
<path class="st9" d="M328.2,910.5v18.6l-14.6-8.5l0-18.4L328.2,910.5z"/>
<path class="st10" d="M328.2,893v16.1l15.5-8.9V920l11.5-6.7v-33.8L328.2,893z"/>
<path class="st2" d="M328.2,893v16.1l-15.5-8.9V920l-11.5-6.7v-33.8L328.2,893z"/>
<path class="st11" d="M301.2,879.5l26.9-13.8l27,13.8v33.8l-27,15.7l-26.9-15.7V879.5z"/>
<path class="st12" d="M553.1,865.7l-26,13h0h0h0h0l26,13V865.7z"/>
<path class="st13" d="M553.1,891.7l25.9-13h0h0h0h0l-25.9-13V891.7z"/>
<path class="st12" d="M553.1,910.5v18.6l14.6-8.5l0-18.4L553.1,910.5z"/>
<path class="st13" d="M553.1,910.5v18.6l-14.6-8.5l0-18.4L553.1,910.5z"/>
<path class="st10" d="M553.1,893v16.1l15.5-8.9V920l11.5-6.7v-33.8L553.1,893z"/>
<path class="st2" d="M553.1,893v16.1l-15.5-8.9V920l-11.4-6.7v-33.8L553.1,893z"/>
<path class="st11" d="M526.2,879.5l26.9-13.8l27,13.8v33.8l-27,15.7l-26.9-15.7V879.5z"/>
<path class="st2" d="M539.3,780.3h5.8l4.3,7.9l4.3-7.9h5.8v12.3h-3.7v-8.9l-5,8.9H548l-5-8.9v8.9h-3.7L539.3,780.3z"/>
<path class="st2" d="M567.5,780.3h5l6.8,12.3H575l-1.2-2.2h-7.7l-1.1,2.2h-4.2L567.5,780.3z M567.5,787.8h4.8l-2.5-4.6L567.5,787.8z
	"/>
<path class="st2" d="M580.7,780.3h11.4c3.8,0,5.1,1.2,5.1,4.3v3.8c0,3-1.3,4.3-5.1,4.3h-11.4V780.3z M584.5,789.5h6.7
	c1.6,0,2.2-0.5,2.2-2.2v-1.7c0-1.8-0.6-2.2-2.2-2.2h-6.7V789.5z"/>
<path class="st2" d="M539.3,795.2h6.2c2.1,0,2.7,1.1,2.7,2.5v0.7c0,1.1-0.5,2.4-2.1,2.4h-4.5v1.8h-2.2L539.3,795.2z M541.6,798.8
	h3.5c0.1,0,0.2,0,0.3,0c0.1,0,0.2-0.1,0.2-0.2c0.1-0.1,0.1-0.2,0.2-0.3s0-0.2,0-0.3v-0.3c0-0.5-0.2-0.8-0.9-0.8h-3.3V798.8z"/>
<path class="st2" d="M552,795.2h2.9l4,7.3h-2.5l-0.7-1.3h-4.6l-0.7,1.3H548L552,795.2z M552,799.6h2.9l-1.4-2.8L552,799.6z"/>
<path class="st2" d="M559.6,797.7c0-2.2,1.2-2.7,3.2-2.7h2.6c3.2,0,3.6,0.7,3.6,2.8h-2.2v-0.2c0-0.5-0.4-0.7-1-0.7h-2.5
	c-1.2,0-1.4,0.6-1.4,1.5v0.8c0,1.1,0.2,1.5,1.3,1.5h2.4c1,0,1.3-0.1,1.3-1h2.2v0.6c0,1.2-0.4,2.2-2.7,2.2h-3.6c-2,0-3.2-0.5-3.2-2.7
	L559.6,797.7z"/>
<path class="st2" d="M570.5,795.2h2.2v2.7h1.1l2.8-2.7h3.1l-4,3.6l4.4,3.8H577l-3.2-2.8h-1v2.8h-2.2L570.5,795.2z"/>
<path class="st2" d="M584.3,795.2h2.9l4,7.3h-2.5l-0.7-1.3h-4.6l-0.7,1.3h-2.5L584.3,795.2z M584.3,799.6h2.9l-1.5-2.8L584.3,799.6z
	"/>
<path class="st2" d="M591.9,797.7c0-2.2,1.2-2.7,3.2-2.7h3.3c2.6,0,2.9,0.9,2.9,2.4v0.2h-2.2c0-0.7-0.4-0.8-1.1-0.8h-2.4
	c-1.1,0-1.4,0.3-1.4,1.5v1c0,1.3,0.3,1.5,1.4,1.5h2.4c0.6,0,1.2-0.1,1.2-0.8v-0.2h-2.8v-1.5h5v2c0,2.1-1.1,2.2-3.6,2.2H595
	c-2,0-3.2-0.5-3.2-2.7L591.9,797.7z"/>
<path class="st2" d="M602.9,795.2h2.2v7.3h-2.2V795.2z"/>
<path class="st2" d="M606.8,795.2h3.5l4.2,5.3v-5.3h2.2v7.3h-3.5l-4.2-5.3v5.3h-2.2V795.2z"/>
<path class="st2" d="M618.2,797.7c0-2.2,1.2-2.7,3.2-2.7h3.4c2.5,0,2.9,0.9,2.9,2.4v0.2h-2.2c0-0.7-0.4-0.8-1.1-0.8h-2.4
	c-1.1,0-1.4,0.3-1.4,1.5v1c0,1.3,0.3,1.5,1.4,1.5h2.4c0.6,0,1.2-0.1,1.2-0.8v-0.2h-2.8v-1.5h5v2c0,2.1-1.1,2.2-3.6,2.2h-2.7
	c-2,0-3.2-0.5-3.2-2.7L618.2,797.7z"/>
<path class="st2" d="M542.5,807.6c0,0.9-0.3,1.1-1.3,1.1c-1,0-1.5-0.2-1.5-1.5v-1.4c0-1.2,0.4-1.5,1.5-1.5c0.9,0,1.3,0.1,1.3,1.1
	v0.3h-0.4v-0.3c0-0.7-0.2-0.7-0.9-0.7c-1,0-1.1,0.1-1.1,1.1v1.4c0,0.9,0.1,1.1,1.1,1.1c1,0,0.9-0.2,0.9-0.8v-0.3h0.4V807.6z"/>
<path class="st2" d="M545,808.4c-0.1,0.1-0.2,0.2-0.4,0.3c-0.2,0.1-0.3,0.1-0.5,0c-0.8,0-0.9-0.4-0.9-0.9s0.1-0.9,0.9-0.9
	c0.6,0,0.7,0.1,0.8,0.3v-0.5c0-0.4,0-0.6-0.7-0.6c-0.7,0-0.6,0.2-0.6,0.5h-0.4v-0.2c0-0.4,0.1-0.7,1-0.7c0.9,0,1,0.3,1,0.8v2.2h-0.3
	L545,808.4z M544.3,808.4c0.5,0,0.7-0.1,0.7-0.6c0-0.5-0.2-0.6-0.7-0.6s-0.7,0.1-0.7,0.6C543.6,808.2,543.8,808.3,544.3,808.4
	L544.3,808.4z"/>
<path class="st2" d="M546.3,804.4h0.4v4.2h-0.4V804.4z"/>
<path class="st2" d="M547.7,804.4h0.4v0.5h-0.4V804.4z M547.7,805.7h0.4v3h-0.4V805.7z"/>
<path class="st2" d="M550.8,808.3c-0.1,0.1-0.2,0.3-0.3,0.3c-0.1,0.1-0.3,0.1-0.5,0.1c-0.8,0-1.1-0.4-1.1-1.6c0-1.2,0.2-1.5,1-1.5
	c0.2,0,0.3,0,0.5,0.1c0.1,0.1,0.3,0.2,0.4,0.3v-1.6h0.4v4.2h-0.4V808.3z M550.1,808.3c0.6,0,0.7-0.2,0.7-1.3c0-0.7-0.2-1-0.7-1
	s-0.7,0.1-0.7,1.2C549.4,808.2,549.5,808.3,550.1,808.3z"/>
<path class="st2" d="M553.9,808.4c-0.1,0.1-0.2,0.2-0.4,0.3c-0.2,0.1-0.3,0.1-0.5,0c-0.8,0-0.9-0.4-0.9-0.9s0.1-0.9,0.9-0.9
	c0.6,0,0.7,0.1,0.8,0.3v-0.5c0-0.4,0-0.6-0.7-0.6c-0.7,0-0.6,0.2-0.6,0.5h-0.4v-0.2c0-0.4,0.1-0.7,1-0.7s1,0.3,1,0.8v2.2h-0.3
	L553.9,808.4z M553.2,808.4c0.5,0,0.7-0.1,0.7-0.6c0-0.5-0.2-0.6-0.7-0.6s-0.7,0.1-0.7,0.6C552.4,808.2,552.7,808.3,553.2,808.4
	L553.2,808.4z"/>
<path class="st2" d="M556.9,808.3c-0.1,0.1-0.2,0.3-0.3,0.3c-0.1,0.1-0.3,0.1-0.5,0.1c-0.8,0-1.1-0.4-1.1-1.6c0-1.2,0.2-1.5,1-1.5
	c0.2,0,0.3,0,0.5,0.1c0.1,0.1,0.3,0.2,0.4,0.3v-1.6h0.4v4.2h-0.4V808.3z M556.2,808.3c0.6,0,0.7-0.2,0.7-1.3c0-0.7-0.2-1-0.7-1
	c-0.5,0-0.7,0.1-0.7,1.2C555.4,808.2,555.6,808.3,556.2,808.3z"/>
<path class="st2" d="M560.1,809.4c0.5,0,0.6-0.1,0.7-0.7h-0.2l-0.9-3h0.4l0.8,2.6l0.6-2.6h0.4l-0.8,3.3c-0.1,0.5-0.4,0.8-0.8,0.8
	c-0.1,0-0.1,0-0.2,0L560.1,809.4z"/>
<path class="st2" d="M564.8,807.8c0,0.5,0.1,0.6,0.6,0.6s0.7-0.1,0.7-0.6s0-0.4-0.8-0.5c-0.8,0-1-0.1-1-0.8c0-0.7,0.1-0.9,1-0.9
	s1,0.2,1,0.8H566c0-0.5-0.1-0.5-0.7-0.5s-0.6,0-0.6,0.5c0,0.5,0,0.4,0.7,0.5c0.9,0,1,0.1,1,0.8c0,0.7-0.1,1-1.1,1c-0.7,0-1-0.1-1-1
	L564.8,807.8z"/>
<path class="st2" d="M567.7,807.3v0.3c0,0.6,0.1,0.8,0.6,0.8s0.7,0,0.7-0.6h0.4v0.1c0,0.6-0.2,0.8-1,0.8s-1.1-0.3-1.1-1.5
	c0-1.2,0.2-1.5,1.1-1.5c0.9,0,1,0.4,1,1.2v0.4H567.7z M569.1,806.9c0-0.6,0-0.9-0.7-0.9s-0.7,0.3-0.7,0.9H569.1z"/>
<path class="st2" d="M570.3,805.7h0.4v0.4c0.1-0.1,0.1-0.2,0.3-0.3c0.1-0.1,0.3-0.1,0.4-0.1c0.5,0,0.7,0.2,0.7,0.8v0.2h-0.3
	c0-0.5-0.1-0.7-0.5-0.7s-0.6,0.2-0.6,0.6v2.1h-0.4L570.3,805.7z"/>
<path class="st2" d="M572.5,805.7h0.4l0.7,2.6l0.7-2.6h0.4l-0.8,3h-0.5L572.5,805.7z"/>
<path class="st2" d="M575.4,804.4h0.4v0.5h-0.4V804.4z M575.4,805.7h0.4v3h-0.4V805.7z"/>
<path class="st2" d="M578.3,806.7c0-0.5-0.1-0.7-0.6-0.7s-0.7,0.1-0.7,1.2s0.1,1.2,0.7,1.2c0.6,0,0.7-0.1,0.7-0.8h0.4v0.2
	c0,0.8-0.4,0.9-1,0.9c-1,0-1.1-0.3-1.1-1.5c0-1.2,0.2-1.5,1.1-1.5c0.9,0,1,0.2,1,1L578.3,806.7z"/>
<path class="st2" d="M579.6,804.4h0.4v0.5h-0.4V804.4z M579.6,805.7h0.4v3h-0.4V805.7z"/>
<path class="st2" d="M582,805.7c1,0,1.1,0.4,1.1,1.5s-0.1,1.5-1.1,1.5c-1,0-1.1-0.3-1.1-1.5S581,805.7,582,805.7z M582,808.4
	c0.6,0,0.7-0.1,0.7-1.2s-0.1-1.2-0.7-1.2c-0.6,0-0.7,0.1-0.7,1.2S581.5,808.4,582,808.4z"/>
<path class="st2" d="M586.2,807.3v0.3c0,0.6,0.1,0.8,0.6,0.8c0.5,0,0.7,0,0.7-0.6h0.4v0.1c0,0.6-0.2,0.8-1,0.8
	c-0.9,0-1.1-0.3-1.1-1.5c0-1.2,0.2-1.5,1.1-1.5c0.9,0,1,0.4,1,1.2v0.4H586.2z M587.5,806.9c0-0.6,0-0.9-0.7-0.9
	c-0.7,0-0.7,0.3-0.7,0.9H587.5z"/>
<path class="st2" d="M588.8,805.7h0.4v0.4c0.1-0.2,0.2-0.3,0.3-0.4c0.1-0.1,0.3-0.1,0.5-0.1c0.7,0,0.9,0.3,0.9,0.9v2.1h-0.4v-2
	c0-0.3-0.1-0.7-0.6-0.7c-0.5,0-0.8,0.2-0.8,0.8v1.9h-0.4L588.8,805.7z"/>
<path class="st2" d="M593.9,807.3v0.3c0,0.6,0.1,0.8,0.6,0.8c0.5,0,0.7,0,0.7-0.6h0.4v0.1c0,0.6-0.1,0.8-1,0.8
	c-0.9,0-1.1-0.3-1.1-1.5c0-1.2,0.2-1.5,1.1-1.5c0.9,0,1,0.4,1,1.2v0.4H593.9z M595.3,806.9c0-0.6,0-0.9-0.7-0.9s-0.7,0.3-0.7,0.9
	H595.3z"/>
<path class="st2" d="M596.5,805.7h0.4v0.5c0.1-0.2,0.2-0.3,0.3-0.4c0.1-0.1,0.3-0.1,0.5-0.1c0.4,0,0.7,0.1,0.9,0.5
	c0.1-0.2,0.2-0.3,0.4-0.4c0.2-0.1,0.3-0.1,0.5-0.1c0.1,0,0.2,0,0.4,0c0.1,0,0.2,0.1,0.3,0.2c0.1,0.1,0.2,0.2,0.2,0.3
	c0,0.1,0,0.2,0,0.4v2.2H600v-1.9c0-0.6-0.2-0.7-0.6-0.7s-0.7,0.2-0.7,0.8v1.9h-0.4v-2.1c0-0.5-0.2-0.6-0.6-0.6c-0.4,0-0.8,0.3-0.8,1
	v1.7h-0.4L596.5,805.7z"/>
<path class="st2" d="M601.3,804.4h0.4v1.6c0.1-0.1,0.2-0.3,0.4-0.3c0.1-0.1,0.3-0.1,0.5-0.1c0.8,0,1,0.4,1,1.5s-0.2,1.5-1.1,1.5
	c-0.2,0-0.3,0-0.5-0.1c-0.1-0.1-0.2-0.2-0.3-0.3v0.4h-0.4L601.3,804.4z M602.4,806c-0.5,0-0.7,0.3-0.7,1c0,1.1,0.1,1.3,0.7,1.3
	s0.7-0.1,0.7-1.2C603.1,806.2,603,806,602.4,806z"/>
<path class="st2" d="M606,808.4c-0.1,0.1-0.2,0.2-0.4,0.3c-0.2,0.1-0.3,0.1-0.5,0c-0.8,0-0.9-0.4-0.9-0.9s0.1-0.9,0.9-0.9
	c0.6,0,0.7,0.1,0.8,0.3v-0.5c0-0.4,0-0.6-0.7-0.6c-0.7,0-0.6,0.2-0.6,0.5h-0.4v-0.2c0-0.4,0.1-0.7,1-0.7c0.9,0,1,0.3,1,0.8v2.2H606
	L606,808.4z M605.3,808.4c0.5,0,0.7-0.1,0.7-0.6c0-0.5-0.2-0.6-0.7-0.6s-0.7,0.1-0.7,0.6C604.6,808.2,604.8,808.3,605.3,808.4
	L605.3,808.4z"/>
<path class="st2" d="M607.3,804.4h0.4v4.2h-0.4V804.4z"/>
<path class="st2" d="M610.5,808.4c-0.1,0.1-0.2,0.2-0.4,0.3c-0.2,0.1-0.3,0.1-0.5,0c-0.8,0-0.9-0.4-0.9-0.9s0.1-0.9,0.9-0.9
	c0.6,0,0.7,0.1,0.8,0.3v-0.5c0-0.4,0-0.6-0.7-0.6s-0.6,0.2-0.6,0.5h-0.4v-0.2c0-0.4,0.1-0.7,1-0.7c0.9,0,1,0.3,1,0.8v2.2h-0.3V808.4
	z M609.8,808.4c0.5,0,0.7-0.1,0.7-0.6c0-0.5-0.2-0.6-0.7-0.6s-0.7,0.1-0.7,0.6C609,808.2,609.2,808.3,609.8,808.4L609.8,808.4z"/>
<path class="st2" d="M611.7,805.7h0.4v3.5c0,0.3-0.2,0.5-0.5,0.5h-0.1v-0.3c0.2,0,0.3,0,0.3-0.2L611.7,805.7z M611.7,804.4h0.4v0.5
	h-0.4V804.4z"/>
<path class="st2" d="M613.5,807.3v0.3c0,0.6,0.1,0.8,0.6,0.8c0.5,0,0.7,0,0.7-0.6h0.4v0.1c0,0.6-0.1,0.8-1,0.8
	c-0.9,0-1.1-0.3-1.1-1.5c0-1.2,0.2-1.5,1.1-1.5c0.9,0,1,0.4,1,1.2v0.4H613.5z M614.8,806.9c0-0.6,0-0.9-0.7-0.9
	c-0.7,0-0.7,0.3-0.7,0.9H614.8z"/>
<path class="st2" d="M616.4,807.8c0,0.5,0.1,0.6,0.6,0.6s0.7-0.1,0.7-0.6s0-0.4-0.8-0.5c-0.8,0-1-0.1-1-0.8c0-0.7,0.1-0.9,1-0.9
	c0.9,0,1,0.2,1,0.8h-0.4c0-0.5-0.1-0.5-0.7-0.5c-0.6,0-0.6,0-0.6,0.5c0,0.5,0,0.4,0.7,0.5c0.9,0,1,0.1,1,0.8c0,0.7-0.1,1-1.1,1
	c-0.7,0-1-0.1-1-1L616.4,807.8z"/>
<path class="st12" d="M511.4,770.8l-19.9,10h0l0,0h0h0l19.9,10V770.8z"/>
<path class="st13" d="M511.4,790.7l19.9-10h0h0h0h0l-19.9-10V790.7z"/>
<path class="st12" d="M511.4,805.1v14.2l11.2-6.5l0-14.1L511.4,805.1z"/>
<path class="st13" d="M511.4,805.1v14.2l-11.2-6.5v-14.1L511.4,805.1z"/>
<path class="st10" d="M511.4,791.8v12.3l11.9-6.8v15.2l8.8-5.1v-25.9L511.4,791.8z"/>
<path class="st2" d="M511.4,791.8v12.3l-11.9-6.8v15.2l-8.8-5.1v-25.9L511.4,791.8z"/>
<path class="st11" d="M490.8,781.4l20.6-10.6l20.7,10.6v25.9l-20.7,12.1l-20.6-12.1V781.4z"/>
<path class="st1" d="M437.6,529.3H224.2v158.6h213.4V529.3z"/>
<path class="st2" d="M213.4,529.3H-0.1v158.6h213.4V529.3z"/>
<path class="st1" d="M82.8,594.3h5.8l4.3,7.9l4.3-7.9h5.8v12.3h-3.7v-8.8l-5,8.8h-2.8l-5-8.8v8.8h-3.7V594.3z"/>
<path class="st1" d="M111,594.3h4.9l6.8,12.3h-4.2l-1.2-2.2h-7.7l-1.1,2.2h-4.2L111,594.3z M111,601.8h4.8l-2.4-4.7L111,601.8z"/>
<path class="st1" d="M124.2,594.3h11.4c3.8,0,5.1,1.2,5.1,4.3v3.7c0,3-1.3,4.3-5.1,4.3h-11.4V594.3z M127.9,603.5h6.7
	c1.6,0,2.2-0.5,2.2-2.2v-1.7c0-1.8-0.6-2.2-2.2-2.2h-6.7V603.5z"/>
<path class="st7" d="M82.8,609.1h6.1c2.1,0,2.7,1.1,2.7,2.5v0.6c0,1.1-0.5,2.3-2.1,2.3H85v1.9h-2.2V609.1z M85,612.8h3.5
	c0.1,0,0.2,0,0.3,0c0.1,0,0.2-0.1,0.3-0.2c0.1-0.1,0.1-0.2,0.2-0.3c0-0.1,0-0.2,0-0.3v-0.3c0-0.5-0.2-0.8-0.9-0.8H85V612.8z"/>
<path class="st7" d="M95.5,609.1h2.9l4,7.3h-2.5l-0.7-1.3h-4.6l-0.7,1.3h-2.5L95.5,609.1z M95.5,613.6h2.9l-1.5-2.8L95.5,613.6z"/>
<path class="st7" d="M103.1,611.7c0-2.2,1.2-2.7,3.2-2.7h2.6c3.2,0,3.6,0.7,3.6,2.8h-2.2v-0.2c0-0.5-0.4-0.7-1.1-0.7h-2.4
	c-1.2,0-1.4,0.6-1.4,1.5v0.8c0,1.1,0.2,1.5,1.3,1.5h2.4c1,0,1.3-0.1,1.3-1h2.2v0.7c0,1.2-0.5,2.2-2.7,2.2h-3.6c-2,0-3.2-0.5-3.2-2.7
	V611.7z"/>
<path class="st7" d="M114,609.1h2.2v2.7h1l2.8-2.7h3.1l-4,3.6l4.4,3.8h-3.2l-3.2-2.8h-1v2.8H114L114,609.1z"/>
<path class="st7" d="M127.8,609.1h2.9l4,7.3h-2.5l-0.7-1.3h-4.6l-0.7,1.3h-2.5L127.8,609.1z M127.8,613.6h2.9l-1.5-2.8L127.8,613.6z
	"/>
<path class="st7" d="M135.4,611.7c0-2.2,1.2-2.7,3.2-2.7h3.4c2.6,0,2.9,0.9,2.9,2.4v0.2h-2.2c0-0.7-0.4-0.8-1.1-0.8h-2.4
	c-1.1,0-1.4,0.3-1.4,1.5v0.9c0,1.2,0.3,1.5,1.4,1.5h2.4c0.6,0,1.2-0.1,1.2-0.8v-0.2h-2.8v-1.5h5v2.1c0,2.1-1.1,2.2-3.6,2.2h-2.7
	c-2,0-3.2-0.5-3.2-2.7L135.4,611.7z"/>
<path class="st7" d="M146.4,609.1h2.2v7.3h-2.2V609.1z"/>
<path class="st7" d="M150.3,609.1h3.5l4.2,5.3v-5.3h2.2v7.3h-3.5l-4.2-5.3v5.3h-2.2V609.1z"/>
<path class="st7" d="M161.6,611.7c0-2.2,1.2-2.7,3.2-2.7h3.4c2.6,0,2.9,0.9,2.9,2.4v0.2h-2.2c0-0.7-0.4-0.8-1.1-0.8h-2.4
	c-1.1,0-1.4,0.3-1.4,1.5v0.9c0,1.2,0.3,1.5,1.4,1.5h2.4c0.6,0,1.2-0.1,1.2-0.8v-0.2h-2.8v-1.5h5v2.1c0,2.1-1.1,2.2-3.6,2.2h-2.7
	c-2,0-3.2-0.5-3.2-2.7V611.7z"/>
<path class="st14" d="M85.9,621.5c0,0.9-0.3,1.1-1.3,1.1s-1.5-0.2-1.5-1.5v-1.4c0-1.2,0.4-1.5,1.5-1.5c0.9,0,1.3,0.1,1.3,1.1v0.3
	h-0.4v-0.3c0-0.7-0.2-0.7-0.9-0.7c-1,0-1.1,0.1-1.1,1.1v1.4c0,0.9,0.1,1.1,1.1,1.1s0.9-0.2,0.9-0.8v-0.3h0.4V621.5z"/>
<path class="st14" d="M88.5,622.3c-0.1,0.1-0.2,0.2-0.4,0.3c-0.2,0.1-0.3,0.1-0.5,0c-0.8,0-0.9-0.4-0.9-0.9c0-0.6,0.1-0.9,0.9-0.9
	c0.6,0,0.7,0.1,0.8,0.3v-0.5c0-0.5,0-0.6-0.7-0.6c-0.7,0-0.6,0.1-0.6,0.5h-0.4v-0.1c0-0.4,0.1-0.7,1-0.7c0.9,0,1,0.3,1,0.8v2.2h-0.3
	V622.3z M87.7,622.3c0.5,0,0.7-0.1,0.7-0.6s-0.2-0.6-0.7-0.6s-0.7,0.1-0.7,0.6S87.2,622.3,87.7,622.3L87.7,622.3z"/>
<path class="st14" d="M89.8,618.3h0.4v4.3h-0.4V618.3z"/>
<path class="st14" d="M91.2,618.3h0.4v0.5h-0.4V618.3z M91.2,619.6h0.4v3h-0.4V619.6z"/>
<path class="st14" d="M94.3,622.3c-0.1,0.3-0.3,0.4-0.8,0.4c-0.8,0-1.1-0.4-1.1-1.5c0-1.2,0.2-1.6,1-1.6c0.2,0,0.3,0,0.5,0.1
	c0.1,0.1,0.3,0.2,0.3,0.3v-1.7h0.4v4.3h-0.4L94.3,622.3z M93.6,622.3c0.6,0,0.7-0.2,0.7-1.4c0-0.7-0.2-1-0.7-1s-0.7,0.1-0.7,1.2
	C92.9,622.2,93,622.3,93.6,622.3L93.6,622.3z"/>
<path class="st14" d="M97.3,622.3c-0.1,0.1-0.2,0.2-0.4,0.3s-0.3,0.1-0.5,0c-0.8,0-0.9-0.4-0.9-0.9c0-0.6,0.1-0.9,0.9-0.9
	c0.6,0,0.7,0.1,0.8,0.3v-0.5c0-0.5,0-0.6-0.7-0.6S96,620,96,620.4h-0.4v-0.1c0-0.4,0.1-0.7,1-0.7c0.9,0,1,0.3,1,0.8v2.2h-0.3
	L97.3,622.3z M96.6,622.3c0.5,0,0.7-0.1,0.7-0.6s-0.2-0.6-0.7-0.6s-0.7,0.1-0.7,0.6S96.1,622.3,96.6,622.3L96.6,622.3z"/>
<path class="st14" d="M100.3,622.3c-0.1,0.3-0.3,0.4-0.8,0.4c-0.8,0-1.1-0.4-1.1-1.5c0-1.2,0.2-1.6,1-1.6c0.2,0,0.3,0,0.5,0.1
	c0.1,0.1,0.3,0.2,0.4,0.3v-1.7h0.4v4.3h-0.4V622.3z M99.6,622.3c0.6,0,0.7-0.2,0.7-1.4c0-0.7-0.2-1-0.7-1c-0.5,0-0.7,0.1-0.7,1.2
	C98.9,622.2,99,622.3,99.6,622.3L99.6,622.3z"/>
<path class="st14" d="M103.6,623.3c0.5,0,0.6-0.1,0.7-0.7h-0.2l-0.9-3h0.4l0.8,2.6l0.6-2.6h0.4l-0.8,3.3c-0.1,0.5-0.4,0.8-0.8,0.8
	c-0.1,0-0.1,0-0.2,0L103.6,623.3z"/>
<path class="st14" d="M108.2,621.7c0,0.5,0.1,0.6,0.6,0.6s0.7-0.1,0.7-0.6s0-0.4-0.8-0.5c-0.8,0-1-0.1-1-0.8c0-0.7,0.1-0.9,1-0.9
	s1.1,0.2,1.1,0.8h-0.4c0-0.5-0.1-0.5-0.7-0.5c-0.6,0-0.6,0-0.6,0.5c0,0.5,0.1,0.5,0.7,0.5c0.9,0.1,1,0.1,1,0.8c0,0.7-0.1,1-1.1,1
	c-0.7,0-1-0.1-1-1L108.2,621.7z"/>
<path class="st14" d="M111.2,621.2v0.3c0,0.6,0.1,0.8,0.6,0.8s0.7,0,0.7-0.6h0.4v0.1c0,0.6-0.2,0.8-1.1,0.8s-1.1-0.3-1.1-1.5
	c0-1.2,0.2-1.6,1.1-1.6s1.1,0.4,1.1,1.2v0.5H111.2z M112.6,620.9c0-0.6,0-0.9-0.7-0.9s-0.7,0.3-0.7,0.9H112.6z"/>
<path class="st14" d="M113.8,619.6h0.4v0.4c0.1-0.1,0.2-0.3,0.3-0.3c0.1-0.1,0.3-0.1,0.4-0.1c0.5,0,0.7,0.2,0.7,0.8v0.2h-0.3
	c0-0.6-0.1-0.7-0.5-0.7c-0.4,0-0.6,0.2-0.6,0.6v2.1h-0.4L113.8,619.6z"/>
<path class="st14" d="M115.9,619.6h0.4l0.7,2.6l0.7-2.6h0.4l-0.8,3h-0.5L115.9,619.6z"/>
<path class="st14" d="M118.8,618.3h0.4v0.5h-0.4V618.3z M118.8,619.6h0.4v3h-0.4V619.6z"/>
<path class="st14" d="M121.8,620.6c0-0.6-0.1-0.7-0.6-0.7s-0.7,0.1-0.7,1.2s0.1,1.2,0.7,1.2s0.7-0.1,0.7-0.8h0.4v0.2
	c0,0.8-0.4,0.9-1,0.9c-1,0-1.1-0.3-1.1-1.5c0-1.2,0.2-1.6,1.1-1.6s1,0.2,1,1L121.8,620.6z"/>
<path class="st14" d="M123.1,618.3h0.4v0.5h-0.4L123.1,618.3z M123.1,619.6h0.4v3h-0.4L123.1,619.6z"/>
<path class="st14" d="M125.5,619.6c1,0,1.1,0.4,1.1,1.6c0,1.2-0.1,1.5-1.1,1.5s-1.1-0.3-1.1-1.5
	C124.4,619.9,124.5,619.6,125.5,619.6z M125.5,622.3c0.6,0,0.7-0.1,0.7-1.2c0-1.1-0.1-1.2-0.7-1.2s-0.7,0.1-0.7,1.2
	S124.9,622.3,125.5,622.3z"/>
<path class="st14" d="M129.6,621.2v0.3c0,0.6,0.1,0.8,0.6,0.8c0.5,0,0.7,0,0.7-0.6h0.4v0.1c0,0.6-0.1,0.8-1,0.8s-1.1-0.3-1.1-1.5
	c0-1.2,0.2-1.6,1.1-1.6c0.9,0,1,0.4,1,1.2v0.5H129.6z M131,620.9c0-0.6,0-0.9-0.7-0.9c-0.7,0-0.7,0.3-0.7,0.9H131z"/>
<path class="st14" d="M132.2,619.6h0.4v0.4c0.1-0.2,0.2-0.3,0.3-0.4c0.2-0.1,0.3-0.1,0.5-0.1c0.7,0,0.9,0.4,0.9,0.9v2.1h-0.4v-2
	c0-0.4-0.1-0.7-0.6-0.7s-0.8,0.2-0.8,0.8v1.9h-0.4L132.2,619.6z"/>
<path class="st14" d="M137.5,621.2v0.3c0,0.6,0.1,0.8,0.6,0.8c0.5,0,0.7,0,0.7-0.6h0.4v0.1c0,0.6-0.2,0.8-1.1,0.8
	c-0.9,0-1.1-0.3-1.1-1.5c0-1.2,0.2-1.6,1.1-1.6c0.9,0,1.1,0.4,1.1,1.2v0.5H137.5z M138.8,620.9c0-0.6,0-0.9-0.7-0.9
	c-0.7,0-0.7,0.3-0.7,0.9H138.8z"/>
<path class="st14" d="M140,619.6h0.4v0.4c0.1-0.2,0.2-0.3,0.3-0.4c0.1-0.1,0.3-0.1,0.5-0.1c0.4,0,0.7,0.1,0.8,0.5
	c0.1-0.2,0.2-0.3,0.4-0.4c0.2-0.1,0.3-0.1,0.5-0.1c0.1,0,0.2,0,0.4,0c0.1,0,0.2,0.1,0.3,0.2s0.2,0.2,0.2,0.3c0,0.1,0,0.2,0,0.4v2.2
	h-0.4v-1.9c0-0.6-0.2-0.7-0.6-0.7c-0.4,0-0.7,0.2-0.7,0.8v1.9h-0.4v-2.1c0-0.5-0.2-0.6-0.6-0.6c-0.4,0-0.8,0.3-0.8,1v1.7H140V619.6z
	"/>
<path class="st14" d="M144.7,618.3h0.4v1.6c0.1-0.1,0.2-0.3,0.4-0.3c0.1-0.1,0.3-0.1,0.5-0.1c0.8,0,1,0.4,1,1.5s-0.2,1.5-1.1,1.5
	c-0.2,0-0.3,0-0.5-0.1c-0.1-0.1-0.2-0.2-0.3-0.3v0.4h-0.4V618.3z M145.8,619.9c-0.5,0-0.7,0.3-0.7,1c0,1.1,0.1,1.3,0.7,1.3
	c0.6,0,0.7-0.1,0.7-1.2C146.5,620.1,146.5,620,145.8,619.9L145.8,619.9z"/>
<path class="st14" d="M149.5,622.3c-0.1,0.1-0.2,0.2-0.4,0.3c-0.2,0.1-0.3,0.1-0.5,0c-0.8,0-0.9-0.4-0.9-0.9c0-0.6,0.1-0.9,0.9-0.9
	c0.6,0,0.7,0.1,0.8,0.3v-0.5c0-0.5,0-0.6-0.7-0.6c-0.7,0-0.6,0.1-0.6,0.5h-0.4v-0.1c0-0.4,0.1-0.7,1-0.7s1,0.3,1,0.8v2.2h-0.3
	L149.5,622.3z M148.8,622.3c0.5,0,0.7-0.1,0.7-0.6s-0.2-0.6-0.7-0.6s-0.7,0.1-0.7,0.6S148.3,622.3,148.8,622.3L148.8,622.3z"/>
<path class="st14" d="M150.8,618.3h0.4v4.3h-0.4V618.3z"/>
<path class="st14" d="M153.9,622.3c-0.1,0.1-0.2,0.2-0.4,0.3c-0.2,0.1-0.3,0.1-0.5,0c-0.8,0-0.9-0.4-0.9-0.9c0-0.6,0.1-0.9,0.9-0.9
	c0.6,0,0.7,0.1,0.8,0.3v-0.5c0-0.5,0-0.6-0.7-0.6s-0.6,0.1-0.6,0.5h-0.4v-0.1c0-0.4,0.1-0.7,1-0.7c0.9,0,1,0.3,1,0.8v2.2h-0.3
	L153.9,622.3z M153.2,622.3c0.5,0,0.7-0.1,0.7-0.6s-0.2-0.6-0.7-0.6s-0.7,0.1-0.7,0.6S152.7,622.3,153.2,622.3L153.2,622.3z"/>
<path class="st14" d="M155.2,619.6h0.4v3.5c0,0.3-0.2,0.5-0.5,0.5h-0.1v-0.3c0.2,0,0.3,0,0.3-0.2V619.6z M155.2,618.4h0.4v0.5h-0.4
	V618.4z"/>
<path class="st14" d="M156.9,621.2v0.3c0,0.6,0.1,0.8,0.6,0.8c0.5,0,0.7,0,0.7-0.6h0.4v0.1c0,0.6-0.1,0.8-1,0.8
	c-0.9,0-1.1-0.3-1.1-1.5c0-1.2,0.2-1.6,1.1-1.6c0.9,0,1,0.4,1,1.2v0.5H156.9z M158.3,620.9c0-0.6,0-0.9-0.7-0.9
	c-0.7,0-0.7,0.3-0.7,0.9H158.3z"/>
<path class="st14" d="M159.9,621.7c0,0.5,0.1,0.6,0.6,0.6s0.7-0.1,0.7-0.6s0-0.4-0.8-0.5c-0.8,0-1-0.1-1-0.8c0-0.7,0.1-0.9,1-0.9
	c0.9,0,1.1,0.2,1.1,0.8h-0.4c0-0.5-0.1-0.5-0.7-0.5c-0.6,0-0.6,0-0.6,0.5c0,0.5,0,0.5,0.7,0.5c0.9,0.1,1,0.1,1,0.8
	c0,0.7-0.1,1-1.1,1c-0.7,0-1-0.1-1-1L159.9,621.7z"/>
<path class="st5" d="M56.9,584.7l-20,10h0h0h0h0l20,10V584.7z"/>
<path class="st4" d="M56.9,604.7l19.8-10h0v0h0l-19.8-10V604.7z"/>
<path class="st5" d="M56.9,619.1v14.2l11.2-6.5l0-14.1L56.9,619.1z"/>
<path class="st4" d="M56.9,619.1v14.2l-11.2-6.5l0-14.1L56.9,619.1z"/>
<path class="st6" d="M56.9,605.7V618l11.9-6.8v15.2l8.8-5.1v-25.9L56.9,605.7z"/>
<path class="st1" d="M56.9,605.7V618L45,611.2v15.2l-8.8-5.1v-25.9L56.9,605.7z"/>
<path class="st3" d="M663.2,529.3H449.8v158.6h213.4V529.3z"/>
<path class="st2" d="M308.8,594.4h5.8l4.3,7.9l4.3-7.9h5.8v12.3h-3.7v-8.9l-5,8.9h-2.9l-5-8.9v8.9h-3.7L308.8,594.4z"/>
<path class="st2" d="M337,594.4h4.9l6.8,12.3h-4.2l-1.2-2.2h-7.7l-1.2,2.1h-4.2L337,594.4z M337,601.9h4.8l-2.4-4.7L337,601.9z"/>
<path class="st2" d="M350.1,594.4h11.4c3.8,0,5.1,1.2,5.1,4.3v3.7c0,3-1.3,4.3-5.1,4.3h-11.4V594.4z M353.9,603.5h6.7
	c1.6,0,2.2-0.5,2.2-2.2v-1.7c0-1.8-0.6-2.2-2.2-2.2h-6.7V603.5z"/>
<path class="st2" d="M308.8,609.1h6.1c2.1,0,2.6,1.1,2.6,2.5v0.6c0,1.1-0.5,2.3-2.1,2.3H311v1.8h-2.2V609.1z M311,612.8h3.5
	c0.1,0,0.2,0,0.3,0c0.1,0,0.2-0.1,0.2-0.2c0.1-0.1,0.1-0.2,0.2-0.3c0-0.1,0-0.2,0-0.3v-0.3c0-0.5-0.2-0.8-0.9-0.8H311V612.8z"/>
<path class="st2" d="M321.5,609.1h2.9l4,7.3h-2.5l-0.7-1.3h-4.5l-0.7,1.3h-2.5L321.5,609.1z M321.5,613.6h2.9l-1.5-2.8L321.5,613.6z
	"/>
<path class="st2" d="M329.1,611.7c0-2.1,1.2-2.7,3.2-2.7h2.6c3.2,0,3.6,0.7,3.6,2.8h-2.2v-0.2c0-0.5-0.4-0.7-1.1-0.7h-2.5
	c-1.2,0-1.4,0.6-1.4,1.5v0.8c0,1.1,0.2,1.5,1.3,1.5h2.4c1,0,1.3-0.1,1.3-1h2.2v0.7c0,1.2-0.5,2.2-2.7,2.2h-3.6c-2,0-3.2-0.5-3.2-2.7
	V611.7z"/>
<path class="st2" d="M340,609.1h2.2v2.7h1.1l2.8-2.7h3.1l-4,3.6l4.4,3.8h-3.2l-3.2-2.8h-1v2.8H340L340,609.1z"/>
<path class="st2" d="M353.8,609.1h2.9l4,7.3h-2.5l-0.7-1.3h-4.6l-0.7,1.3h-2.5L353.8,609.1z M353.8,613.6h2.9l-1.5-2.8L353.8,613.6z
	"/>
<path class="st2" d="M361.3,611.7c0-2.1,1.2-2.7,3.2-2.7h3.4c2.6,0,2.9,0.9,2.9,2.3v0.2h-2.2c0-0.7-0.4-0.8-1.1-0.8h-2.5
	c-1.1,0-1.4,0.3-1.4,1.5v0.9c0,1.2,0.3,1.5,1.4,1.5h2.4c0.6,0,1.2-0.1,1.2-0.8v-0.2h-2.8v-1.5h5.1v2.1c0,2.1-1.1,2.2-3.6,2.2h-2.7
	c-2,0-3.2-0.5-3.2-2.7L361.3,611.7z"/>
<path class="st2" d="M372.4,609.1h2.2v7.3h-2.2V609.1z"/>
<path class="st2" d="M376.3,609.1h3.5l4.2,5.3v-5.3h2.2v7.3h-3.5l-4.2-5.3v5.3h-2.2V609.1z"/>
<path class="st2" d="M387.6,611.7c0-2.1,1.2-2.7,3.2-2.7h3.4c2.6,0,2.9,0.9,2.9,2.3v0.2h-2.2c0-0.7-0.4-0.8-1.1-0.8h-2.4
	c-1.1,0-1.4,0.3-1.4,1.5v0.9c0,1.2,0.3,1.5,1.4,1.5h2.4c0.6,0,1.2-0.1,1.2-0.8v-0.2h-2.8v-1.5h5v2.1c0,2.1-1.1,2.2-3.6,2.2h-2.7
	c-2,0-3.2-0.5-3.2-2.7L387.6,611.7z"/>
<path class="st2" d="M311.9,621.6c0,0.9-0.3,1.1-1.3,1.1s-1.5-0.2-1.5-1.4v-1.4c0-1.2,0.4-1.5,1.5-1.5c0.9,0,1.3,0.1,1.3,1.1v0.3
	h-0.4v-0.3c0-0.7-0.2-0.7-0.9-0.7c-1,0-1.1,0.1-1.1,1.1v1.4c0,0.9,0.1,1.1,1.1,1.1s0.9-0.2,0.9-0.8v-0.3h0.4V621.6z"/>
<path class="st2" d="M314.5,622.4c-0.1,0.1-0.2,0.2-0.4,0.3c-0.2,0.1-0.3,0.1-0.5,0c-0.8,0-0.9-0.4-0.9-0.9s0.1-0.9,0.9-0.9
	c0.6,0,0.7,0.1,0.8,0.3v-0.5c0-0.5,0-0.6-0.7-0.6s-0.6,0.1-0.6,0.5h-0.4v-0.1c0-0.4,0.1-0.7,1-0.7s1,0.3,1,0.8v2.2h-0.3V622.4z
	 M313.7,622.3c0.5,0,0.7-0.1,0.7-0.6s-0.2-0.6-0.7-0.6s-0.7,0.1-0.7,0.6S313.2,622.4,313.7,622.3L313.7,622.3z"/>
<path class="st2" d="M315.8,618.4h0.4v4.3h-0.4V618.4z"/>
<path class="st2" d="M317.2,618.4h0.4v0.5h-0.4V618.4z M317.2,619.6h0.4v3h-0.4V619.6z"/>
<path class="st2" d="M320.3,622.3c-0.1,0.3-0.3,0.4-0.8,0.4c-0.8,0-1.1-0.4-1.1-1.5c0-1.2,0.2-1.5,1-1.5c0.2,0,0.3,0,0.5,0.1
	c0.1,0.1,0.3,0.2,0.3,0.3v-1.7h0.4v4.3h-0.4L320.3,622.3z M319.6,622.3c0.6,0,0.7-0.2,0.7-1.4c0-0.7-0.2-1-0.7-1s-0.7,0.1-0.7,1.2
	C318.9,622.2,319,622.4,319.6,622.3L319.6,622.3z"/>
<path class="st2" d="M323.3,622.4c-0.1,0.1-0.2,0.2-0.4,0.3c-0.2,0.1-0.3,0.1-0.5,0c-0.8,0-0.9-0.4-0.9-0.9s0.1-0.9,0.9-0.9
	c0.6,0,0.7,0.1,0.8,0.3v-0.5c0-0.5,0-0.6-0.7-0.6c-0.7,0-0.6,0.1-0.6,0.5h-0.4v-0.1c0-0.4,0.1-0.7,1-0.7s1,0.3,1,0.8v2.2h-0.3
	L323.3,622.4z M322.6,622.3c0.5,0,0.7-0.1,0.7-0.6s-0.2-0.6-0.7-0.6s-0.7,0.1-0.7,0.6S322.1,622.4,322.6,622.3L322.6,622.3z"/>
<path class="st2" d="M326.3,622.3c-0.1,0.3-0.3,0.4-0.8,0.4c-0.8,0-1.1-0.4-1.1-1.5c0-1.2,0.2-1.5,1-1.5c0.2,0,0.3,0,0.5,0.1
	c0.1,0.1,0.3,0.2,0.3,0.3v-1.7h0.4v4.3h-0.4L326.3,622.3z M325.6,622.3c0.6,0,0.7-0.2,0.7-1.4c0-0.7-0.2-1-0.7-1s-0.7,0.1-0.7,1.2
	C324.9,622.2,325,622.4,325.6,622.3L325.6,622.3z"/>
<path class="st2" d="M329.6,623.4c0.5,0,0.6-0.1,0.7-0.7h-0.2l-0.9-3h0.4l0.8,2.6l0.6-2.6h0.4l-0.8,3.3c-0.1,0.5-0.4,0.8-0.8,0.8
	c-0.1,0-0.1,0-0.2,0L329.6,623.4z"/>
<path class="st2" d="M334.2,621.7c0,0.5,0.1,0.6,0.6,0.6s0.7-0.1,0.7-0.6s0-0.4-0.8-0.5s-1-0.1-1-0.8c0-0.7,0.1-0.9,1-0.9
	s1,0.2,1,0.8h-0.4c0-0.5-0.1-0.5-0.7-0.5c-0.6,0-0.6,0-0.6,0.5c0,0.5,0.1,0.5,0.7,0.5c0.9,0.1,1,0.1,1,0.8s-0.1,1-1.1,1
	c-0.7,0-1-0.1-1-1L334.2,621.7z"/>
<path class="st2" d="M337.2,621.2v0.3c0,0.6,0.1,0.8,0.6,0.8s0.7,0,0.7-0.6h0.4v0.1c0,0.6-0.1,0.8-1,0.8c-0.8,0-1.1-0.3-1.1-1.5
	c0-1.2,0.2-1.5,1.1-1.5c0.9,0,1,0.4,1,1.2v0.5H337.2z M338.5,620.9c0-0.6,0-0.9-0.7-0.9c-0.7,0-0.7,0.3-0.7,0.9H338.5z"/>
<path class="st2" d="M339.8,619.6h0.4v0.4c0.1-0.1,0.2-0.2,0.3-0.3c0.1-0.1,0.3-0.1,0.4-0.1c0.5,0,0.7,0.2,0.7,0.8v0.2h-0.3
	c0-0.6-0.1-0.7-0.5-0.7s-0.6,0.2-0.6,0.6v2.1h-0.4L339.8,619.6z"/>
<path class="st2" d="M341.9,619.6h0.4l0.7,2.6l0.7-2.6h0.4l-0.8,3h-0.5L341.9,619.6z"/>
<path class="st2" d="M344.8,618.4h0.4v0.5h-0.4V618.4z M344.8,619.6h0.4v3h-0.4V619.6z"/>
<path class="st2" d="M347.8,620.7c0-0.5-0.1-0.7-0.6-0.7s-0.7,0.1-0.7,1.2s0.1,1.2,0.7,1.2s0.7-0.1,0.7-0.8h0.4v0.2
	c0,0.8-0.4,0.9-1,0.9c-1,0-1.1-0.3-1.1-1.5c0-1.2,0.2-1.5,1.1-1.5s1,0.2,1,1L347.8,620.7z"/>
<path class="st2" d="M349.1,618.4h0.4v0.5h-0.4L349.1,618.4z M349.1,619.6h0.4v3h-0.4L349.1,619.6z"/>
<path class="st2" d="M351.5,619.6c1,0,1.1,0.4,1.1,1.5c0,1.2-0.1,1.5-1.1,1.5s-1.1-0.3-1.1-1.5C350.4,619.9,350.5,619.6,351.5,619.6
	z M351.5,622.4c0.6,0,0.7-0.1,0.7-1.2c0-1.1-0.1-1.2-0.7-1.2s-0.7,0.1-0.7,1.2S350.9,622.4,351.5,622.4z"/>
<path class="st2" d="M355.6,621.2v0.3c0,0.6,0.1,0.8,0.6,0.8s0.7,0,0.7-0.6h0.4v0.1c0,0.6-0.1,0.8-1,0.8s-1.1-0.3-1.1-1.5
	c0-1.2,0.2-1.5,1.1-1.5s1,0.4,1,1.2v0.5H355.6z M357,620.9c0-0.6,0-0.9-0.7-0.9s-0.7,0.3-0.7,0.9H357z"/>
<path class="st2" d="M358.2,619.7h0.4v0.4c0.1-0.2,0.2-0.3,0.3-0.4c0.1-0.1,0.3-0.1,0.5-0.1c0.7,0,0.9,0.4,0.9,0.9v2.1h-0.4v-2
	c0-0.3-0.1-0.7-0.6-0.7s-0.8,0.2-0.8,0.8v1.9h-0.4L358.2,619.7z"/>
<path class="st2" d="M363.4,621.2v0.3c0,0.6,0.1,0.8,0.6,0.8c0.5,0,0.7,0,0.7-0.6h0.4v0.1c0,0.6-0.1,0.8-1,0.8s-1.1-0.3-1.1-1.5
	c0-1.2,0.2-1.5,1.1-1.5s1,0.4,1,1.2v0.5H363.4z M364.8,620.9c0-0.6,0-0.9-0.7-0.9s-0.7,0.3-0.7,0.9H364.8z"/>
<path class="st2" d="M366,619.6h0.4v0.4c0.1-0.2,0.2-0.3,0.3-0.4c0.1-0.1,0.3-0.1,0.5-0.1c0.2,0,0.4,0,0.5,0.1
	c0.2,0.1,0.3,0.2,0.3,0.4c0.1-0.2,0.2-0.3,0.4-0.4c0.2-0.1,0.3-0.1,0.5-0.1c0.1,0,0.2,0,0.4,0c0.1,0,0.2,0.1,0.3,0.2
	c0.1,0.1,0.2,0.2,0.2,0.3c0,0.1,0,0.2,0,0.4v2.2h-0.4v-1.9c0-0.6-0.2-0.7-0.6-0.7s-0.7,0.2-0.7,0.8v1.9h-0.4v-2.1
	c0-0.5-0.2-0.6-0.6-0.6s-0.8,0.3-0.8,1v1.7H366L366,619.6z"/>
<path class="st2" d="M370.7,618.4h0.4v1.6c0.1-0.1,0.2-0.3,0.4-0.3s0.3-0.1,0.5-0.1c0.8,0,1,0.4,1,1.5s-0.2,1.5-1.1,1.5
	c-0.2,0-0.3,0-0.5-0.1c-0.1-0.1-0.2-0.2-0.3-0.3v0.4h-0.4V618.4z M371.8,619.9c-0.5,0-0.7,0.3-0.7,1c0,1.1,0.1,1.3,0.7,1.3
	s0.7-0.1,0.7-1.2C372.5,620.1,372.4,620,371.8,619.9L371.8,619.9z"/>
<path class="st2" d="M375.5,622.4c-0.1,0.1-0.2,0.2-0.4,0.3c-0.2,0.1-0.3,0.1-0.5,0c-0.8,0-0.9-0.4-0.9-0.9s0.1-0.9,0.9-0.9
	c0.6,0,0.7,0.1,0.8,0.3v-0.5c0-0.5,0-0.6-0.7-0.6s-0.6,0.1-0.6,0.5h-0.4v-0.1c0-0.4,0.1-0.7,1-0.7c0.9,0,1,0.3,1,0.8v2.2h-0.3
	L375.5,622.4z M374.8,622.3c0.5,0,0.7-0.1,0.7-0.6s-0.2-0.6-0.7-0.6s-0.7,0.1-0.7,0.6S374.3,622.4,374.8,622.3L374.8,622.3z"/>
<path class="st2" d="M376.8,618.4h0.4v4.3h-0.4V618.4z"/>
<path class="st2" d="M379.9,622.4c-0.1,0.1-0.2,0.2-0.4,0.3c-0.2,0.1-0.3,0.1-0.5,0c-0.8,0-0.9-0.4-0.9-0.9s0.1-0.9,0.9-0.9
	c0.6,0,0.7,0.1,0.8,0.3v-0.5c0-0.5,0-0.6-0.7-0.6c-0.7,0-0.6,0.1-0.6,0.5h-0.4v-0.1c0-0.4,0.1-0.7,1-0.7s1,0.3,1,0.8v2.2h-0.3
	L379.9,622.4z M379.2,622.3c0.5,0,0.7-0.1,0.7-0.6s-0.2-0.6-0.7-0.6s-0.7,0.1-0.7,0.6S378.7,622.4,379.2,622.3L379.2,622.3z"/>
<path class="st2" d="M381.2,619.7h0.4v3.5c0,0.3-0.2,0.5-0.5,0.5h-0.1v-0.3c0.2,0,0.3,0,0.3-0.2V619.7z M381.2,618.4h0.4v0.5h-0.4
	V618.4z"/>
<path class="st2" d="M382.9,621.2v0.3c0,0.6,0.1,0.8,0.6,0.8s0.7,0,0.7-0.6h0.4v0.1c0,0.6-0.2,0.8-1.1,0.8s-1.1-0.3-1.1-1.5
	c0-1.2,0.2-1.5,1.1-1.5s1,0.4,1,1.2v0.5H382.9z M384.3,620.9c0-0.6,0-0.9-0.7-0.9c-0.7,0-0.7,0.3-0.7,0.9H384.3z"/>
<path class="st2" d="M385.9,621.7c0,0.5,0.1,0.6,0.6,0.6s0.7-0.1,0.7-0.6s0-0.4-0.8-0.5s-1-0.1-1-0.8c0-0.7,0.1-0.9,1-0.9
	s1,0.2,1,0.8h-0.4c0-0.5-0.1-0.5-0.7-0.5s-0.6,0-0.6,0.5c0,0.5,0,0.5,0.7,0.5c0.9,0.1,1,0.1,1,0.8s-0.1,1-1.1,1c-0.7,0-1-0.1-1-1
	L385.9,621.7z"/>
<path class="st8" d="M281.9,584.7l-19.9,10h0h0l19.9,10V584.7z"/>
<path class="st9" d="M281.9,604.7l19.8-10h0v0h0l-19.8-10V604.7z"/>
<path class="st8" d="M281.9,619.1v14.2l11.2-6.5v-14.1L281.9,619.1z"/>
<path class="st9" d="M281.9,619.1v14.2l-11.2-6.5l0-14.1L281.9,619.1z"/>
<path class="st10" d="M281.9,605.7V618l11.9-6.9v15.2l8.8-5.1v-25.9L281.9,605.7z"/>
<path class="st2" d="M281.9,605.7V618l-11.9-6.9v15.2l-8.8-5.1v-25.9L281.9,605.7z"/>
<path class="st11" d="M261.2,595.3l20.6-10.6l20.7,10.6v25.9l-20.7,12.1l-20.6-12.1V595.3z"/>
<path class="st2" d="M536.1,594.3h5.8l4.3,7.9l4.3-7.9h5.8v12.3h-3.7v-8.8l-5,8.8h-2.8l-5-8.8v8.8h-3.8V594.3z"/>
<path class="st2" d="M564.3,594.3h4.9l6.8,12.3h-4.2l-1.2-2.2h-7.7l-1.1,2.2h-4.2L564.3,594.3z M564.3,601.8h4.8l-2.5-4.6
	L564.3,601.8z"/>
<path class="st2" d="M577.5,594.3h11.4c3.8,0,5.1,1.2,5.1,4.3v3.7c0,3-1.3,4.3-5.1,4.3h-11.4V594.3z M581.3,603.5h6.7
	c1.6,0,2.2-0.5,2.2-2.2v-1.7c0-1.8-0.6-2.2-2.2-2.2h-6.7V603.5z"/>
<path class="st2" d="M536.1,609.1h6.1c2.1,0,2.7,1.1,2.7,2.5v0.6c0,1.1-0.5,2.3-2.1,2.3h-4.5v1.9h-2.2V609.1z M538.3,612.8h3.5
	c0.1,0,0.2,0,0.3,0c0.1,0,0.2-0.1,0.2-0.2s0.1-0.2,0.2-0.3c0-0.1,0-0.2,0-0.3v-0.3c0-0.5-0.2-0.8-0.9-0.8h-3.3V612.8z"/>
<path class="st2" d="M548.8,609.1h2.9l4,7.3h-2.5l-0.7-1.3H548l-0.7,1.3h-2.5L548.8,609.1z M548.8,613.6h2.9l-1.5-2.8L548.8,613.6z"
	/>
<path class="st2" d="M556.4,611.7c0-2.2,1.2-2.7,3.2-2.7h2.7c3.2,0,3.6,0.7,3.6,2.8h-2.2v-0.2c0-0.5-0.4-0.7-1-0.7h-2.5
	c-1.2,0-1.4,0.6-1.4,1.5v0.8c0,1.1,0.2,1.5,1.3,1.5h2.4c1,0,1.3-0.1,1.3-1h2.2v0.7c0,1.2-0.4,2.2-2.7,2.2h-3.6c-2,0-3.2-0.5-3.2-2.7
	L556.4,611.7z"/>
<path class="st2" d="M567.3,609.1h2.2v2.7h1l2.8-2.7h3.1l-4,3.6l4.4,3.8h-3.2l-3.2-2.8h-1v2.8h-2.2L567.3,609.1z"/>
<path class="st2" d="M581,609.1h2.9l4,7.3h-2.5l-0.7-1.3h-4.6l-0.7,1.3H577L581,609.1z M581,613.6h2.9l-1.5-2.8L581,613.6z"/>
<path class="st2" d="M588.7,611.7c0-2.2,1.2-2.7,3.2-2.7h3.4c2.5,0,2.9,0.9,2.9,2.4v0.2H596c0-0.7-0.4-0.8-1.1-0.8h-2.4
	c-1.1,0-1.4,0.3-1.4,1.5v0.9c0,1.2,0.3,1.5,1.4,1.5h2.4c0.6,0,1.2-0.1,1.2-0.8v-0.2h-2.8v-1.5h5v2.1c0,2.1-1.1,2.2-3.6,2.2h-2.7
	c-2,0-3.2-0.5-3.2-2.7L588.7,611.7z"/>
<path class="st2" d="M599.7,609.1h2.2v7.3h-2.2V609.1z"/>
<path class="st2" d="M603.6,609.1h3.5l4.2,5.3v-5.3h2.2v7.3h-3.5l-4.2-5.3v5.3h-2.2V609.1z"/>
<path class="st2" d="M614.9,611.7c0-2.2,1.2-2.7,3.2-2.7h3.4c2.5,0,2.9,0.9,2.9,2.4v0.2h-2.2c0-0.7-0.4-0.8-1.1-0.8h-2.4
	c-1.1,0-1.4,0.3-1.4,1.5v0.9c0,1.2,0.3,1.5,1.4,1.5h2.4c0.6,0,1.2-0.1,1.2-0.8v-0.2h-2.8v-1.5h5v2.1c0,2.1-1.1,2.2-3.6,2.2h-2.7
	c-2,0-3.2-0.5-3.2-2.7L614.9,611.7z"/>
<path class="st2" d="M539.2,621.5c0,0.9-0.3,1.1-1.3,1.1c-1,0-1.5-0.2-1.5-1.5v-1.4c0-1.2,0.4-1.5,1.5-1.5c0.9,0,1.3,0.1,1.3,1.1
	v0.3h-0.4v-0.3c0-0.7-0.2-0.7-0.9-0.7c-1,0-1.1,0.1-1.1,1.1v1.4c0,0.9,0.1,1.1,1.1,1.1c1,0,0.9-0.2,0.9-0.8v-0.3h0.4V621.5z"/>
<path class="st2" d="M541.8,622.3c-0.1,0.1-0.2,0.2-0.4,0.3s-0.3,0.1-0.5,0c-0.8,0-0.9-0.4-0.9-0.9c0-0.6,0.1-0.9,0.9-0.9
	c0.6,0,0.7,0.1,0.8,0.3v-0.5c0-0.5,0-0.6-0.7-0.6s-0.6,0.1-0.6,0.5H540v-0.1c0-0.4,0.1-0.7,1-0.7s1,0.3,1,0.8v2.2h-0.3L541.8,622.3z
	 M541,622.3c0.5,0,0.7-0.1,0.7-0.6s-0.2-0.6-0.7-0.6s-0.7,0.1-0.7,0.6S540.5,622.3,541,622.3L541,622.3z"/>
<path class="st2" d="M543,618.3h0.4v4.3h-0.4L543,618.3z"/>
<path class="st2" d="M544.5,618.3h0.4v0.5h-0.4V618.3z M544.5,619.6h0.4v3h-0.4V619.6z"/>
<path class="st2" d="M547.6,622.3c-0.1,0.1-0.2,0.3-0.3,0.3c-0.1,0.1-0.3,0.1-0.5,0.1c-0.8,0-1.1-0.4-1.1-1.5c0-1.2,0.2-1.6,1-1.6
	c0.2,0,0.3,0,0.5,0.1c0.1,0.1,0.3,0.2,0.4,0.3v-1.7h0.4v4.3h-0.4V622.3z M546.9,622.3c0.6,0,0.7-0.2,0.7-1.4c0-0.7-0.2-1-0.7-1
	c-0.5,0-0.7,0.1-0.7,1.2C546.2,622.2,546.3,622.3,546.9,622.3L546.9,622.3z"/>
<path class="st2" d="M550.6,622.3c-0.1,0.1-0.2,0.2-0.4,0.3c-0.2,0.1-0.3,0.1-0.5,0c-0.8,0-0.9-0.4-0.9-0.9c0-0.6,0.1-0.9,0.9-0.9
	c0.6,0,0.7,0.1,0.8,0.3v-0.5c0-0.5,0-0.6-0.7-0.6c-0.7,0-0.6,0.1-0.6,0.5h-0.4v-0.1c0-0.4,0.1-0.7,1-0.7c0.9,0,1,0.3,1,0.8v2.2h-0.3
	L550.6,622.3z M549.9,622.3c0.5,0,0.7-0.1,0.7-0.6s-0.2-0.6-0.7-0.6s-0.7,0.1-0.7,0.6S549.5,622.3,549.9,622.3L549.9,622.3z"/>
<path class="st2" d="M553.6,622.3c-0.1,0.1-0.2,0.3-0.3,0.3c-0.1,0.1-0.3,0.1-0.5,0.1c-0.8,0-1.1-0.4-1.1-1.5c0-1.2,0.2-1.6,1-1.6
	c0.2,0,0.3,0,0.5,0.1c0.1,0.1,0.3,0.2,0.4,0.3v-1.7h0.4v4.3h-0.4L553.6,622.3z M552.9,622.3c0.6,0,0.7-0.2,0.7-1.4
	c0-0.7-0.2-1-0.7-1c-0.5,0-0.7,0.1-0.7,1.2C552.2,622.2,552.3,622.3,552.9,622.3L552.9,622.3z"/>
<path class="st2" d="M556.9,623.3c0.5,0,0.6-0.1,0.7-0.7h-0.2l-0.9-3h0.4l0.8,2.6l0.6-2.6h0.4l-0.8,3.3c-0.1,0.5-0.4,0.8-0.8,0.8
	c-0.1,0-0.1,0-0.2,0L556.9,623.3z"/>
<path class="st2" d="M561.5,621.7c0,0.5,0.1,0.6,0.6,0.6s0.7-0.1,0.7-0.6s0-0.4-0.8-0.5c-0.8,0-1-0.1-1-0.8c0-0.7,0.1-0.9,1-0.9
	s1,0.2,1,0.8h-0.4c0-0.5-0.1-0.5-0.7-0.5s-0.6,0-0.6,0.5c0,0.5,0,0.5,0.7,0.5c0.9,0.1,1,0.1,1,0.8c0,0.7-0.1,1-1.1,1
	c-0.7,0-1-0.1-1-1L561.5,621.7z"/>
<path class="st2" d="M564.5,621.2v0.3c0,0.6,0.1,0.8,0.6,0.8s0.7,0,0.7-0.6h0.4v0.1c0,0.6-0.1,0.8-1,0.8c-0.8,0-1.1-0.3-1.1-1.5
	c0-1.2,0.2-1.6,1.1-1.6c0.9,0,1,0.4,1,1.2v0.5H564.5z M565.8,620.9c0-0.6,0-0.9-0.7-0.9s-0.7,0.3-0.7,0.9H565.8z"/>
<path class="st2" d="M567.1,619.6h0.4v0.4c0.1-0.1,0.1-0.2,0.3-0.3c0.1-0.1,0.3-0.1,0.4-0.1c0.5,0,0.7,0.2,0.7,0.8v0.2h-0.4
	c0-0.6-0.1-0.7-0.5-0.7s-0.6,0.2-0.6,0.6v2.1H567L567.1,619.6z"/>
<path class="st2" d="M569.2,619.6h0.4l0.7,2.6l0.7-2.6h0.4l-0.8,3h-0.5L569.2,619.6z"/>
<path class="st2" d="M572.1,618.3h0.3v0.5h-0.4L572.1,618.3z M572.1,619.6h0.3v3h-0.4L572.1,619.6z"/>
<path class="st2" d="M575.1,620.6c0-0.6-0.1-0.7-0.6-0.7s-0.7,0.1-0.7,1.2s0.1,1.2,0.7,1.2s0.7-0.1,0.7-0.8h0.4v0.2
	c0,0.8-0.4,0.9-1,0.9c-1,0-1.1-0.3-1.1-1.5c0-1.2,0.2-1.6,1.1-1.6s1,0.2,1,1L575.1,620.6z"/>
<path class="st2" d="M576.4,618.3h0.4v0.5h-0.4V618.3z M576.4,619.6h0.4v3h-0.4V619.6z"/>
<path class="st2" d="M578.8,619.6c1,0,1.1,0.4,1.1,1.6c0,1.2-0.1,1.5-1.1,1.5c-1,0-1.1-0.3-1.1-1.5
	C577.7,619.9,577.8,619.6,578.8,619.6z M578.8,622.3c0.6,0,0.7-0.1,0.7-1.2c0-1.1-0.1-1.2-0.7-1.2c-0.6,0-0.7,0.1-0.7,1.2
	S578.2,622.3,578.8,622.3z"/>
<path class="st2" d="M582.9,621.2v0.3c0,0.6,0.1,0.8,0.6,0.8c0.5,0,0.7,0,0.7-0.6h0.4v0.1c0,0.6-0.1,0.8-1,0.8
	c-0.9,0-1.1-0.3-1.1-1.5c0-1.2,0.2-1.6,1.1-1.6c0.9,0,1,0.4,1,1.2v0.5H582.9z M584.3,620.9c0-0.6,0-0.9-0.7-0.9
	c-0.7,0-0.7,0.3-0.7,0.9H584.3z"/>
<path class="st2" d="M585.5,619.6h0.4v0.4c0.1-0.2,0.2-0.3,0.3-0.4c0.1-0.1,0.3-0.1,0.5-0.1c0.7,0,0.9,0.4,0.9,0.9v2.1h-0.4v-2
	c0-0.4-0.1-0.7-0.6-0.7c-0.5,0-0.8,0.2-0.8,0.8v1.9h-0.4L585.5,619.6z"/>
<path class="st2" d="M590.7,621.2v0.3c0,0.6,0.1,0.8,0.6,0.8c0.5,0,0.7,0,0.7-0.6h0.4v0.1c0,0.6-0.1,0.8-1,0.8s-1.1-0.3-1.1-1.5
	c0-1.2,0.2-1.6,1.1-1.6c0.9,0,1,0.4,1,1.2v0.5H590.7z M592.1,620.9c0-0.6,0-0.9-0.7-0.9c-0.7,0-0.7,0.3-0.7,0.9H592.1z"/>
<path class="st2" d="M593.3,619.6h0.4v0.4c0.1-0.2,0.2-0.3,0.3-0.4c0.1-0.1,0.3-0.1,0.5-0.1c0.4,0,0.7,0.1,0.9,0.5
	c0.1-0.2,0.2-0.3,0.4-0.4c0.2-0.1,0.3-0.1,0.5-0.1c0.1,0,0.2,0,0.4,0c0.1,0,0.2,0.1,0.3,0.2c0.1,0.1,0.2,0.2,0.2,0.3
	c0,0.1,0,0.2,0,0.4v2.2h-0.4v-1.9c0-0.6-0.2-0.7-0.6-0.7s-0.7,0.2-0.7,0.8v1.9H595v-2.1c0-0.5-0.2-0.6-0.6-0.6c-0.4,0-0.8,0.3-0.8,1
	v1.7h-0.4L593.3,619.6z"/>
<path class="st2" d="M598,618.3h0.4v1.6c0.1-0.1,0.2-0.3,0.4-0.3c0.1-0.1,0.3-0.1,0.5-0.1c0.8,0,1,0.4,1,1.5s-0.2,1.5-1.1,1.5
	c-0.2,0-0.3,0-0.5-0.1s-0.2-0.2-0.3-0.3v0.4H598L598,618.3z M599.1,619.9c-0.5,0-0.7,0.3-0.7,1c0,1.1,0.1,1.3,0.7,1.3
	s0.7-0.1,0.7-1.2C599.8,620.1,599.7,620,599.1,619.9L599.1,619.9z"/>
<path class="st2" d="M602.8,622.3c-0.1,0.1-0.2,0.2-0.4,0.3c-0.2,0.1-0.3,0.1-0.5,0c-0.8,0-0.9-0.4-0.9-0.9c0-0.6,0.1-0.9,0.9-0.9
	c0.6,0,0.7,0.1,0.8,0.3v-0.5c0-0.5,0-0.6-0.7-0.6c-0.7,0-0.6,0.1-0.6,0.5h-0.4v-0.1c0-0.4,0.1-0.7,1-0.7c0.9,0,1,0.3,1,0.8v2.2h-0.3
	L602.8,622.3z M602.1,622.3c0.5,0,0.7-0.1,0.7-0.6s-0.2-0.6-0.7-0.6s-0.7,0.1-0.7,0.6S601.6,622.3,602.1,622.3L602.1,622.3z"/>
<path class="st2" d="M604.1,618.3h0.4v4.3h-0.4L604.1,618.3z"/>
<path class="st2" d="M607.2,622.3c-0.1,0.1-0.2,0.2-0.4,0.3c-0.2,0.1-0.3,0.1-0.5,0c-0.8,0-0.9-0.4-0.9-0.9c0-0.6,0.1-0.9,0.9-0.9
	c0.6,0,0.7,0.1,0.8,0.3v-0.5c0-0.5-0.1-0.6-0.7-0.6s-0.6,0.1-0.6,0.5h-0.4v-0.1c0-0.4,0.1-0.7,1-0.7c0.9,0,1,0.3,1,0.8v2.2h-0.3
	L607.2,622.3z M606.5,622.3c0.5,0,0.7-0.1,0.7-0.6c0-0.5-0.2-0.6-0.7-0.6s-0.7,0.1-0.7,0.6S606,622.3,606.5,622.3z"/>
<path class="st2" d="M608.5,619.6h0.4v3.5c0,0.3-0.2,0.5-0.5,0.5h-0.1v-0.3c0.2,0,0.3,0,0.3-0.2V619.6z M608.5,618.4h0.4v0.5h-0.4
	V618.4z"/>
<path class="st2" d="M610.2,621.2v0.3c0,0.6,0.1,0.8,0.6,0.8c0.5,0,0.7,0,0.7-0.6h0.4v0.1c0,0.6-0.1,0.8-1,0.8
	c-0.9,0-1.1-0.3-1.1-1.5c0-1.2,0.2-1.6,1.1-1.6c0.9,0,1,0.4,1,1.2v0.5H610.2z M611.6,620.9c0-0.6,0-0.9-0.7-0.9s-0.7,0.3-0.7,0.9
	H611.6z"/>
<path class="st2" d="M613.2,621.7c0,0.5,0.1,0.6,0.6,0.6s0.7-0.1,0.7-0.6s0-0.4-0.8-0.5c-0.8,0-1-0.1-1-0.8c0-0.7,0.1-0.9,1-0.9
	s1,0.2,1,0.8h-0.3c0-0.5-0.1-0.5-0.7-0.5s-0.6,0-0.6,0.5c0,0.5,0,0.5,0.7,0.5c0.9,0.1,1,0.1,1,0.8c0,0.7-0.1,1-1.1,1
	c-0.7,0-1-0.1-1-1L613.2,621.7z"/>
<path class="st12" d="M509.2,584.7l-19.9,10h0h0h0h0l19.9,10V584.7z"/>
<path class="st13" d="M509.2,604.7l19.9-10h0l0,0h0h0l-19.9-10V604.7z"/>
<path class="st12" d="M509.2,619.1v14.2l11.2-6.5l0-14.1L509.2,619.1z"/>
<path class="st13" d="M509.2,619.1v14.2l-11.2-6.5v-14.1L509.2,619.1z"/>
<path class="st10" d="M509.2,605.7V618l11.9-6.8v15.2l8.8-5.1v-25.9L509.2,605.7z"/>
<path class="st2" d="M509.2,605.7V618l-11.9-6.8v15.2l-8.8-5.1v-25.9L509.2,605.7z"/>
<path class="st11" d="M488.5,595.3l20.6-10.6l20.7,10.6v25.9l-20.7,12.1l-20.6-12.1V595.3z"/>
<path class="st15" d="M890,735.4H676.6v230.9H890V735.4z"/>
<path class="st16" d="M779.9,865.7l-26,13h0h0h0h0l26,13V865.7z"/>
<path class="st17" d="M779.9,891.7l25.9-13h0h0l-25.9-13V891.7z"/>
<path class="st16" d="M779.9,910.5v18.6l14.6-8.5l0-18.4L779.9,910.5z"/>
<path class="st17" d="M779.9,910.5v18.6l-14.6-8.5l0-18.4L779.9,910.5z"/>
<path class="st10" d="M779.9,893v16.1l15.5-8.9V920l11.5-6.7v-33.8L779.9,893z"/>
<path class="st2" d="M779.9,893v16.1l-15.5-8.9V920l-11.5-6.7v-33.8L779.9,893z"/>
<path class="st11" d="M753,879.5l26.9-13.8l27,13.8v33.8l-27,15.7L753,913.3V879.5z"/>
<path class="st2" d="M766.1,780.4h5.8l4.3,7.9l4.3-7.9h5.8v12.3h-3.7v-8.9l-5,8.9h-2.8l-5-8.9v8.9h-3.7L766.1,780.4z"/>
<path class="st2" d="M794.3,780.4h4.9l6.8,12.3h-4.2l-1.2-2.2h-7.7l-1.1,2.2h-4.2L794.3,780.4z M794.4,787.8h4.8l-2.5-4.6
	L794.4,787.8z"/>
<path class="st2" d="M807.5,780.4h11.4c3.8,0,5.1,1.2,5.1,4.3v3.8c0,3-1.3,4.3-5.1,4.3h-11.4V780.4z M811.2,789.5h6.7
	c1.6,0,2.2-0.5,2.2-2.2v-1.7c0-1.8-0.6-2.2-2.2-2.2h-6.7V789.5z"/>
<path class="st2" d="M766.1,795.2h6.1c2.1,0,2.7,1.1,2.7,2.5v0.7c0,1.1-0.5,2.4-2.1,2.4h-4.5v1.8h-2.2V795.2z M768.3,798.8h3.5
	c0.1,0,0.2,0,0.3,0c0.1,0,0.2-0.1,0.2-0.2c0.1-0.1,0.1-0.2,0.2-0.3c0-0.1,0-0.2,0-0.3v-0.3c0-0.5-0.2-0.8-0.9-0.8h-3.3V798.8z"/>
<path class="st2" d="M778.8,795.2h2.9l4,7.3h-2.5l-0.7-1.3h-4.6l-0.6,1.3h-2.5L778.8,795.2z M778.8,799.6h2.9l-1.5-2.8L778.8,799.6z
	"/>
<path class="st2" d="M786.4,797.8c0-2.2,1.2-2.7,3.2-2.7h2.6c3.2,0,3.6,0.7,3.6,2.8h-2.2v-0.2c0-0.5-0.4-0.7-1-0.7h-2.5
	c-1.2,0-1.4,0.6-1.4,1.5v0.8c0,1.1,0.2,1.5,1.3,1.5h2.4c1,0,1.3-0.1,1.3-1h2.2v0.6c0,1.2-0.5,2.2-2.7,2.2h-3.6c-2,0-3.2-0.5-3.2-2.7
	L786.4,797.8z"/>
<path class="st2" d="M797.3,795.2h2.2v2.7h1l2.8-2.7h3.1l-4,3.6l4.4,3.8h-3.2l-3.2-2.8h-1v2.8h-2.2L797.3,795.2z"/>
<path class="st2" d="M811.1,795.2h2.9l4,7.3h-2.5l-0.7-1.3h-4.6l-0.7,1.3h-2.5L811.1,795.2z M811.1,799.6h2.9l-1.5-2.8L811.1,799.6z
	"/>
<path class="st2" d="M818.7,797.8c0-2.2,1.2-2.7,3.2-2.7h3.4c2.6,0,2.9,0.9,2.9,2.4v0.2H826c0-0.7-0.4-0.8-1.1-0.8h-2.5
	c-1.1,0-1.4,0.3-1.4,1.5v1c0,1.3,0.3,1.5,1.4,1.5h2.4c0.6,0,1.2-0.1,1.2-0.8v-0.2h-2.8v-1.5h5v2c0,2.1-1.1,2.2-3.6,2.2h-2.7
	c-2,0-3.2-0.5-3.2-2.7L818.7,797.8z"/>
<path class="st2" d="M829.7,795.2h2.2v7.3h-2.2V795.2z"/>
<path class="st2" d="M833.6,795.2h3.5l4.2,5.3v-5.3h2.2v7.3h-3.5l-4.2-5.3v5.3h-2.2V795.2z"/>
<path class="st2" d="M845,797.8c0-2.2,1.2-2.7,3.2-2.7h3.4c2.5,0,2.9,0.9,2.9,2.4v0.2h-2.2c0-0.7-0.4-0.8-1.1-0.8h-2.4
	c-1.1,0-1.4,0.3-1.4,1.5v1c0,1.3,0.3,1.5,1.4,1.5h2.4c0.6,0,1.2-0.1,1.2-0.8v-0.2h-2.8v-1.5h5v2c0,2.1-1.1,2.2-3.6,2.2h-2.7
	c-2,0-3.2-0.5-3.2-2.7L845,797.8z"/>
<path class="st2" d="M769.2,807.6c0,0.9-0.3,1.1-1.3,1.1c-1,0-1.5-0.2-1.5-1.5v-1.4c0-1.2,0.4-1.5,1.5-1.5c0.9,0,1.3,0.1,1.3,1.1
	v0.3h-0.4v-0.3c0-0.7-0.2-0.7-0.9-0.7c-1,0-1.1,0.1-1.1,1.1v1.4c0,0.9,0.1,1.1,1.1,1.1c1,0,0.9-0.2,0.9-0.8v-0.3h0.4V807.6z"/>
<path class="st2" d="M771.8,808.4c-0.1,0.1-0.2,0.2-0.4,0.3c-0.2,0.1-0.3,0.1-0.5,0c-0.8,0-0.9-0.4-0.9-0.9c0-0.6,0.1-0.9,0.9-0.9
	c0.6,0,0.7,0.1,0.8,0.3v-0.5c0-0.4,0-0.6-0.7-0.6c-0.7,0-0.6,0.2-0.6,0.5h-0.4v-0.2c0-0.4,0.1-0.7,1-0.7s1,0.3,1,0.9v2.2h-0.3
	L771.8,808.4z M771.1,808.4c0.5,0,0.7-0.1,0.7-0.6c0-0.5-0.2-0.6-0.7-0.6s-0.7,0.1-0.7,0.6C770.3,808.3,770.6,808.4,771.1,808.4
	L771.1,808.4z"/>
<path class="st2" d="M773.1,804.5h0.4v4.2h-0.4L773.1,804.5z"/>
<path class="st2" d="M774.5,804.5h0.4v0.5h-0.4V804.5z M774.5,805.7h0.4v3h-0.4V805.7z"/>
<path class="st2" d="M777.6,808.4c-0.1,0.1-0.2,0.3-0.3,0.3c-0.1,0.1-0.3,0.1-0.5,0.1c-0.8,0-1.1-0.4-1.1-1.5s0.2-1.5,1-1.5
	c0.2,0,0.3,0,0.5,0.1c0.1,0.1,0.3,0.2,0.4,0.3v-1.7h0.4v4.2h-0.4L777.6,808.4z M776.9,808.4c0.6,0,0.7-0.2,0.7-1.3
	c0-0.7-0.2-1-0.7-1c-0.5,0-0.7,0.1-0.7,1.2C776.2,808.2,776.3,808.4,776.9,808.4z"/>
<path class="st2" d="M780.7,808.4c-0.1,0.1-0.2,0.2-0.4,0.3c-0.2,0.1-0.3,0.1-0.5,0c-0.8,0-0.9-0.4-0.9-0.9c0-0.6,0.1-0.9,0.9-0.9
	c0.6,0,0.7,0.1,0.8,0.3v-0.5c0-0.4,0-0.6-0.7-0.6s-0.6,0.2-0.6,0.5H779v-0.2c0-0.4,0.1-0.7,1-0.7c0.9,0,1,0.3,1,0.9v2.2h-0.3
	L780.7,808.4z M780,808.4c0.5,0,0.7-0.1,0.7-0.6c0-0.5-0.2-0.6-0.7-0.6s-0.7,0.1-0.7,0.6C779.2,808.3,779.5,808.4,780,808.4
	L780,808.4z"/>
<path class="st2" d="M783.7,808.4c-0.1,0.3-0.3,0.4-0.8,0.4c-0.8,0-1.1-0.4-1.1-1.5s0.2-1.5,1-1.5c0.2,0,0.3,0,0.5,0.1
	c0.1,0.1,0.3,0.2,0.3,0.3v-1.7h0.4v4.2h-0.4L783.7,808.4z M782.9,808.4c0.6,0,0.7-0.2,0.7-1.3c0-0.7-0.2-1-0.7-1s-0.7,0.1-0.7,1.2
	C782.2,808.2,782.3,808.4,782.9,808.4z"/>
<path class="st2" d="M786.9,809.4c0.5,0,0.6-0.1,0.7-0.7h-0.1l-0.9-3h0.4l0.8,2.6l0.6-2.6h0.4L788,809c-0.1,0.5-0.4,0.8-0.8,0.8
	c-0.1,0-0.1,0-0.2,0L786.9,809.4z"/>
<path class="st2" d="M791.6,807.8c0,0.5,0.1,0.6,0.6,0.6s0.7-0.1,0.7-0.6c0-0.5,0-0.4-0.8-0.5s-1-0.2-1-0.8s0.1-0.9,1-0.9
	s1,0.2,1,0.8h-0.4c0-0.5-0.1-0.5-0.7-0.5c-0.6,0-0.6,0.1-0.6,0.5c0,0.5,0,0.5,0.7,0.5c0.9,0.1,1,0.1,1,0.8c0,0.7-0.1,1-1.1,1
	c-0.7,0-1-0.1-1-1L791.6,807.8z"/>
<path class="st2" d="M794.5,807.3v0.3c0,0.7,0.1,0.8,0.6,0.8c0.5,0,0.7,0,0.7-0.6h0.4v0.1c0,0.6-0.2,0.8-1,0.8
	c-0.9,0-1.1-0.3-1.1-1.5c0-1.2,0.2-1.5,1.1-1.5c0.9,0,1,0.4,1,1.2v0.5H794.5z M795.8,806.9c0-0.6,0-0.9-0.7-0.9
	c-0.7,0-0.7,0.3-0.7,0.9H795.8z"/>
<path class="st2" d="M797.1,805.7h0.4v0.4c0.1-0.1,0.2-0.3,0.3-0.3c0.1-0.1,0.3-0.1,0.4-0.1c0.5,0,0.7,0.2,0.7,0.8v0.2h-0.3
	c0-0.6-0.1-0.7-0.5-0.7c-0.4,0-0.6,0.2-0.6,0.6v2.1h-0.4L797.1,805.7z"/>
<path class="st2" d="M799.2,805.7h0.4l0.7,2.6l0.7-2.6h0.4l-0.8,3h-0.5L799.2,805.7z"/>
<path class="st2" d="M802.1,804.5h0.4v0.5h-0.4V804.5z M802.1,805.7h0.4v3h-0.4V805.7z"/>
<path class="st2" d="M805.1,806.7c0-0.5-0.1-0.7-0.6-0.7s-0.7,0.1-0.7,1.2c0,1.1,0.1,1.2,0.7,1.2c0.6,0,0.7-0.2,0.7-0.8h0.4v0.2
	c0,0.8-0.4,0.9-1,0.9c-1,0-1.1-0.3-1.1-1.5c0-1.2,0.2-1.5,1.1-1.5c0.9,0,1,0.2,1,1L805.1,806.7z"/>
<path class="st2" d="M806.5,804.5h0.4v0.5h-0.4V804.5z M806.5,805.7h0.4v3h-0.4V805.7z"/>
<path class="st2" d="M808.8,805.7c1,0,1.1,0.3,1.1,1.5s-0.1,1.5-1.1,1.5c-1,0-1.1-0.3-1.1-1.5S807.8,805.7,808.8,805.7z
	 M808.8,808.4c0.6,0,0.7-0.1,0.7-1.2s-0.1-1.2-0.7-1.2c-0.6,0-0.7,0.1-0.7,1.2C808.1,808.3,808.2,808.4,808.8,808.4z"/>
<path class="st2" d="M812.9,807.3v0.3c0,0.7,0.1,0.8,0.6,0.8c0.5,0,0.7,0,0.7-0.6h0.4v0.1c0,0.6-0.2,0.8-1.1,0.8
	c-0.9,0-1.1-0.3-1.1-1.5c0-1.2,0.2-1.5,1.1-1.5c0.9,0,1.1,0.4,1.1,1.2v0.5H812.9z M814.3,806.9c0-0.6,0-0.9-0.7-0.9
	c-0.7,0-0.7,0.3-0.7,0.9H814.3z"/>
<path class="st2" d="M815.5,805.7h0.4v0.4c0.1-0.1,0.2-0.3,0.3-0.3c0.1-0.1,0.3-0.1,0.5-0.1c0.7,0,0.9,0.3,0.9,0.9v2.1h-0.4v-2
	c0-0.3-0.1-0.7-0.6-0.7c-0.5,0-0.8,0.2-0.8,0.8v1.9h-0.4L815.5,805.7z"/>
<path class="st2" d="M820.7,807.3v0.3c0,0.7,0.1,0.8,0.6,0.8c0.5,0,0.7,0,0.7-0.6h0.4v0.1c0,0.6-0.1,0.8-1,0.8
	c-0.8,0-1.1-0.3-1.1-1.5c0-1.2,0.2-1.5,1.1-1.5c0.9,0,1,0.4,1,1.2v0.5H820.7z M822.1,806.9c0-0.6,0-0.9-0.7-0.9
	c-0.7,0-0.7,0.3-0.7,0.9H822.1z"/>
<path class="st2" d="M823.3,805.7h0.4v0.5c0.1-0.2,0.2-0.3,0.3-0.4c0.1-0.1,0.3-0.1,0.5-0.1c0.2,0,0.4,0,0.5,0.1
	c0.2,0.1,0.3,0.2,0.3,0.4c0.1-0.2,0.2-0.3,0.4-0.4c0.2-0.1,0.3-0.1,0.5-0.1c0.1,0,0.2,0,0.4,0c0.1,0,0.2,0.1,0.3,0.2
	c0.1,0.1,0.2,0.2,0.2,0.3c0,0.1,0.1,0.2,0,0.4v2.2h-0.4v-1.9c0-0.6-0.2-0.7-0.6-0.7c-0.4,0-0.7,0.2-0.7,0.8v1.9H825v-2.1
	c0-0.5-0.2-0.6-0.6-0.6c-0.4,0-0.8,0.3-0.8,1v1.7h-0.4L823.3,805.7z"/>
<path class="st2" d="M828,804.5h0.4v1.6c0.1-0.1,0.2-0.3,0.4-0.3c0.1-0.1,0.3-0.1,0.5-0.1c0.8,0,1,0.4,1,1.5s-0.2,1.5-1.1,1.5
	c-0.2,0-0.3,0-0.5-0.1c-0.1-0.1-0.3-0.2-0.3-0.3v0.4h-0.4L828,804.5z M829.1,806c-0.5,0-0.7,0.3-0.7,1c0,1.1,0.1,1.3,0.7,1.3
	s0.7-0.1,0.7-1.2S829.7,806,829.1,806z"/>
<path class="st2" d="M832.8,808.4c-0.1,0.1-0.2,0.2-0.4,0.3c-0.2,0.1-0.3,0.1-0.5,0c-0.8,0-0.9-0.4-0.9-0.9c0-0.6,0.1-0.9,0.9-0.9
	c0.6,0,0.7,0.1,0.8,0.3v-0.5c0-0.4,0-0.6-0.7-0.6c-0.7,0-0.6,0.2-0.6,0.5h-0.4v-0.2c0-0.4,0.1-0.7,1-0.7c0.9,0,1,0.3,1,0.9v2.2h-0.3
	L832.8,808.4z M832.1,808.4c0.5,0,0.7-0.1,0.7-0.6c0-0.5-0.2-0.6-0.7-0.6s-0.7,0.1-0.7,0.6C831.4,808.3,831.6,808.4,832.1,808.4
	L832.1,808.4z"/>
<path class="st2" d="M834.1,804.5h0.3v4.2h-0.4L834.1,804.5z"/>
<path class="st2" d="M837.2,808.4c-0.1,0.1-0.2,0.2-0.4,0.3c-0.2,0.1-0.3,0.1-0.5,0c-0.8,0-0.9-0.4-0.9-0.9c0-0.6,0.1-0.9,0.9-0.9
	c0.6,0,0.7,0.1,0.8,0.3v-0.5c0-0.4,0-0.6-0.7-0.6c-0.7,0-0.6,0.2-0.6,0.5h-0.4v-0.2c0-0.4,0.1-0.7,1-0.7c0.9,0,1,0.3,1,0.9v2.2h-0.3
	L837.2,808.4z M836.5,808.4c0.5,0,0.7-0.1,0.7-0.6s-0.2-0.6-0.7-0.6s-0.7,0.1-0.7,0.6S836,808.4,836.5,808.4z"/>
<path class="st2" d="M838.5,805.7h0.4v3.5c0,0.3-0.2,0.5-0.5,0.5h-0.1v-0.3c0.2,0,0.3,0,0.3-0.2V805.7z M838.5,804.5h0.4v0.5h-0.4
	V804.5z"/>
<path class="st2" d="M840.2,807.3v0.3c0,0.7,0.1,0.8,0.6,0.8s0.7,0,0.7-0.6h0.4v0.1c0,0.6-0.1,0.8-1,0.8c-0.8,0-1.1-0.3-1.1-1.5
	c0-1.2,0.2-1.5,1.1-1.5c0.9,0,1,0.4,1,1.2v0.5H840.2z M841.6,806.9c0-0.6,0-0.9-0.7-0.9s-0.7,0.3-0.7,0.9H841.6z"/>
<path class="st2" d="M843.2,807.8c0,0.5,0.1,0.6,0.6,0.6s0.7-0.1,0.7-0.6c0-0.5,0-0.4-0.8-0.5s-1-0.2-1-0.8s0.1-0.9,1-0.9
	s1,0.2,1,0.8h-0.4c0-0.5-0.1-0.5-0.7-0.5s-0.6,0.1-0.6,0.5c0,0.5,0,0.5,0.7,0.5c0.9,0.1,1,0.1,1,0.8c0,0.7-0.1,1-1.1,1
	c-0.7,0-1-0.1-1-1L843.2,807.8z"/>
<path class="st16" d="M738.2,770.8l-19.9,10h0v0h0l19.9,10V770.8z"/>
<path class="st17" d="M738.2,790.8l19.8-10h0h0l-19.8-10V790.8z"/>
<path class="st16" d="M738.2,805.1v14.2l11.2-6.5v-14.1L738.2,805.1z"/>
<path class="st17" d="M738.2,805.1v14.2l-11.2-6.5l0-14.1L738.2,805.1z"/>
<path class="st10" d="M738.2,791.8v12.3l11.9-6.8v15.2l8.8-5.1v-25.9L738.2,791.8z"/>
<path class="st2" d="M738.2,791.8v12.3l-11.9-6.8v15.2l-8.8-5.1v-25.9L738.2,791.8z"/>
<path class="st11" d="M717.6,781.4l20.7-10.6l20.7,10.6v25.9l-20.7,12.1l-20.7-12.1V781.4z"/>
<path class="st15" d="M890,529.3H676.6v158.6H890V529.3z"/>
<path class="st2" d="M762.9,594.3h5.8l4.3,7.9l4.3-7.9h5.8v12.3h-3.7v-8.8l-5,8.8h-2.8l-5-8.8v8.8h-3.7L762.9,594.3z"/>
<path class="st2" d="M791,594.3h4.9l6.8,12.3h-4.2l-1.2-2.2h-7.7l-1.1,2.2h-4.2L791,594.3z M791.1,601.8h4.8l-2.5-4.7L791.1,601.8z"
	/>
<path class="st2" d="M804.2,594.3h11.4c3.8,0,5.1,1.2,5.1,4.3v3.7c0,3-1.3,4.3-5.1,4.3h-11.4V594.3z M808,603.5h6.7
	c1.6,0,2.2-0.5,2.2-2.2v-1.7c0-1.8-0.6-2.2-2.2-2.2H808V603.5z"/>
<path class="st2" d="M762.9,609.1h6.1c2.1,0,2.6,1.1,2.6,2.5v0.6c0,1.1-0.5,2.3-2.1,2.3h-4.5v1.9h-2.2V609.1z M765.1,612.8h3.5
	c0.1,0,0.2,0,0.3,0c0.1,0,0.2-0.1,0.2-0.2s0.1-0.2,0.2-0.3s0-0.2,0-0.3v-0.3c0-0.5-0.2-0.8-0.9-0.8h-3.3V612.8z"/>
<path class="st2" d="M775.5,609.1h2.9l4,7.3H780l-0.7-1.3h-4.6l-0.6,1.3h-2.5L775.5,609.1z M775.5,613.6h2.9l-1.5-2.8L775.5,613.6z"
	/>
<path class="st2" d="M783.1,611.7c0-2.2,1.2-2.7,3.2-2.7h2.6c3.2,0,3.6,0.7,3.6,2.8h-2.2v-0.2c0-0.5-0.4-0.7-1-0.7h-2.5
	c-1.2,0-1.4,0.6-1.4,1.5v0.8c0,1.1,0.2,1.5,1.3,1.5h2.4c1,0,1.3-0.1,1.3-1h2.2v0.7c0,1.2-0.5,2.2-2.7,2.2h-3.6c-2,0-3.2-0.5-3.2-2.7
	V611.7z"/>
<path class="st2" d="M794.1,609.1h2.2v2.7h1l2.8-2.7h3.1l-4,3.6l4.4,3.8h-3.2l-3.2-2.8h-1v2.8H794L794.1,609.1z"/>
<path class="st2" d="M807.8,609.1h2.9l4,7.3h-2.5l-0.7-1.3H807l-0.7,1.3h-2.5L807.8,609.1z M807.8,613.6h2.9l-1.5-2.8L807.8,613.6z"
	/>
<path class="st2" d="M815.5,611.7c0-2.2,1.2-2.7,3.2-2.7h3.4c2.6,0,2.9,0.9,2.9,2.4v0.2h-2.2c0-0.7-0.4-0.8-1.1-0.8h-2.5
	c-1.1,0-1.4,0.3-1.4,1.5v0.9c0,1.2,0.3,1.5,1.4,1.5h2.4c0.6,0,1.2-0.1,1.2-0.8v-0.2H820v-1.5h5v2.1c0,2.1-1.1,2.2-3.6,2.2h-2.7
	c-2,0-3.2-0.5-3.2-2.7L815.5,611.7z"/>
<path class="st2" d="M826.5,609.1h2.2v7.3h-2.2V609.1z"/>
<path class="st2" d="M830.4,609.1h3.5l4.2,5.3v-5.3h2.2v7.3h-3.5l-4.2-5.3v5.3h-2.3V609.1z"/>
<path class="st2" d="M841.7,611.7c0-2.2,1.2-2.7,3.2-2.7h3.4c2.6,0,2.9,0.9,2.9,2.4v0.2H849c0-0.7-0.4-0.8-1.1-0.8h-2.4
	c-1.1,0-1.4,0.3-1.4,1.5v0.9c0,1.2,0.3,1.5,1.4,1.5h2.4c0.6,0,1.2-0.1,1.2-0.8v-0.2h-2.8v-1.5h5v2.1c0,2.1-1.1,2.2-3.6,2.2h-2.7
	c-2,0-3.2-0.5-3.2-2.7L841.7,611.7z"/>
<path class="st2" d="M766,621.5c0,0.9-0.3,1.1-1.3,1.1c-1,0-1.5-0.2-1.5-1.5v-1.4c0-1.2,0.4-1.5,1.5-1.5c0.9,0,1.3,0.1,1.3,1.1v0.3
	h-0.4v-0.3c0-0.7-0.2-0.7-0.9-0.7c-1,0-1.1,0.1-1.1,1.1v1.4c0,0.9,0.1,1.1,1.1,1.1c1,0,0.9-0.2,0.9-0.8v-0.3h0.4V621.5z"/>
<path class="st2" d="M768.5,622.3c-0.1,0.1-0.2,0.2-0.4,0.3c-0.2,0.1-0.3,0.1-0.5,0c-0.8,0-0.9-0.4-0.9-0.9c0-0.6,0.1-0.9,0.9-0.9
	c0.6,0,0.7,0.1,0.8,0.3v-0.5c0-0.5,0-0.6-0.7-0.6c-0.7,0-0.6,0.1-0.6,0.5h-0.4v-0.1c0-0.4,0.1-0.7,1-0.7c0.9,0,1,0.3,1,0.8v2.2h-0.3
	L768.5,622.3z M767.8,622.3c0.5,0,0.7-0.1,0.7-0.6s-0.2-0.6-0.7-0.6s-0.7,0.1-0.7,0.6S767.3,622.3,767.8,622.3L767.8,622.3z"/>
<path class="st2" d="M769.8,618.3h0.4v4.3h-0.4V618.3z"/>
<path class="st2" d="M771.3,618.3h0.4v0.5h-0.4V618.3z M771.3,619.6h0.4v3h-0.4V619.6z"/>
<path class="st2" d="M774.4,622.3c-0.1,0.3-0.3,0.4-0.8,0.4c-0.8,0-1.1-0.4-1.1-1.5c0-1.2,0.2-1.6,1-1.6c0.2,0,0.3,0,0.5,0.1
	c0.1,0.1,0.3,0.2,0.3,0.3v-1.7h0.4v4.3h-0.4L774.4,622.3z M773.7,622.3c0.6,0,0.7-0.2,0.7-1.4c0-0.7-0.2-1-0.7-1
	c-0.5,0-0.7,0.1-0.7,1.2C773,622.2,773.1,622.3,773.7,622.3L773.7,622.3z"/>
<path class="st2" d="M777.5,622.3c-0.1,0.1-0.2,0.2-0.4,0.3c-0.2,0.1-0.3,0.1-0.5,0c-0.8,0-0.9-0.4-0.9-0.9c0-0.6,0.1-0.9,0.9-0.9
	c0.6,0,0.7,0.1,0.8,0.3v-0.5c0-0.5,0-0.6-0.7-0.6s-0.6,0.1-0.6,0.5h-0.4v-0.1c0-0.4,0.1-0.7,1-0.7c0.9,0,1,0.3,1,0.8v2.2h-0.3V622.3
	z M776.8,622.3c0.5,0,0.7-0.1,0.7-0.6s-0.2-0.6-0.7-0.6s-0.7,0.1-0.7,0.6S776.2,622.3,776.8,622.3L776.8,622.3z"/>
<path class="st2" d="M780.5,622.3c-0.1,0.3-0.3,0.4-0.8,0.4c-0.8,0-1.1-0.4-1.1-1.5c0-1.2,0.2-1.6,1-1.6c0.2,0,0.3,0,0.5,0.1
	s0.3,0.2,0.4,0.3v-1.7h0.4v4.3h-0.4V622.3z M779.8,622.3c0.6,0,0.7-0.2,0.7-1.4c0-0.7-0.2-1-0.7-1s-0.7,0.1-0.7,1.2
	C779,622.2,779.1,622.3,779.8,622.3L779.8,622.3z"/>
<path class="st2" d="M783.7,623.3c0.5,0,0.6-0.1,0.7-0.7h-0.2l-0.9-3h0.4l0.8,2.6l0.6-2.6h0.4l-0.8,3.3c-0.1,0.5-0.3,0.8-0.8,0.8
	c-0.1,0-0.1,0-0.2,0V623.3z"/>
<path class="st2" d="M788.3,621.7c0,0.5,0.1,0.6,0.6,0.6s0.7-0.1,0.7-0.6s0-0.4-0.8-0.5c-0.8,0-1-0.1-1-0.8c0-0.7,0.1-0.9,1-0.9
	s1,0.2,1,0.8h-0.4c0-0.5-0.1-0.5-0.7-0.5s-0.6,0-0.6,0.5c0,0.5,0.1,0.5,0.7,0.5c0.9,0.1,1,0.1,1,0.8c0,0.7-0.1,1-1.1,1
	c-0.7,0-1-0.1-1-1L788.3,621.7z"/>
<path class="st2" d="M791.3,621.2v0.3c0,0.6,0.1,0.8,0.6,0.8c0.5,0,0.7,0,0.7-0.6h0.4v0.1c0,0.6-0.1,0.8-1,0.8
	c-0.8,0-1.1-0.3-1.1-1.5c0-1.2,0.2-1.6,1.1-1.6c0.9,0,1,0.4,1,1.2v0.5H791.3z M792.6,620.9c0-0.6,0-0.9-0.7-0.9
	c-0.7,0-0.7,0.3-0.7,0.9H792.6z"/>
<path class="st2" d="M793.9,619.6h0.4v0.4c0.1-0.1,0.2-0.3,0.3-0.3c0.1-0.1,0.3-0.1,0.4-0.1c0.5,0,0.7,0.2,0.7,0.8v0.2h-0.3
	c0-0.6-0.1-0.7-0.5-0.7s-0.6,0.2-0.6,0.6v2.1h-0.4L793.9,619.6z"/>
<path class="st2" d="M796,619.6h0.4l0.7,2.6l0.7-2.6h0.4l-0.8,3h-0.5L796,619.6z"/>
<path class="st2" d="M798.9,618.3h0.4v0.5h-0.4V618.3z M798.9,619.6h0.4v3h-0.4V619.6z"/>
<path class="st2" d="M801.9,620.6c0-0.6-0.1-0.7-0.6-0.7s-0.7,0.1-0.7,1.2s0.1,1.2,0.7,1.2c0.6,0,0.7-0.1,0.7-0.8h0.4v0.2
	c0,0.8-0.4,0.9-1,0.9c-1,0-1.1-0.3-1.1-1.5c0-1.2,0.2-1.6,1.1-1.6c0.9,0,1,0.2,1,1L801.9,620.6z"/>
<path class="st2" d="M803.2,618.3h0.4v0.5h-0.4V618.3z M803.2,619.6h0.4v3h-0.4V619.6z"/>
<path class="st2" d="M805.6,619.6c1,0,1.1,0.4,1.1,1.6c0,1.2-0.1,1.5-1.1,1.5c-1,0-1.1-0.3-1.1-1.5
	C804.5,619.9,804.6,619.6,805.6,619.6z M805.6,622.3c0.6,0,0.7-0.1,0.7-1.2c0-1.1-0.1-1.2-0.7-1.2c-0.6,0-0.7,0.1-0.7,1.2
	S805,622.3,805.6,622.3z"/>
<path class="st2" d="M809.7,621.2v0.3c0,0.6,0.1,0.8,0.6,0.8s0.7,0,0.7-0.6h0.4v0.1c0,0.6-0.1,0.8-1,0.8s-1.1-0.3-1.1-1.5
	c0-1.2,0.2-1.6,1.1-1.6c0.9,0,1,0.4,1,1.2v0.5H809.7z M811.1,620.9c0-0.6,0-0.9-0.7-0.9s-0.7,0.3-0.7,0.9H811.1z"/>
<path class="st2" d="M812.3,619.6h0.4v0.4c0.1-0.2,0.2-0.3,0.3-0.4c0.1-0.1,0.3-0.1,0.5-0.1c0.7,0,0.9,0.4,0.9,0.9v2.1H814v-2
	c0-0.4-0.1-0.7-0.6-0.7s-0.8,0.2-0.8,0.8v1.9h-0.4L812.3,619.6z"/>
<path class="st2" d="M817.5,621.2v0.3c0,0.6,0.1,0.8,0.6,0.8s0.7,0,0.7-0.6h0.4v0.1c0,0.6-0.1,0.8-1,0.8c-0.8,0-1.1-0.3-1.1-1.5
	c0-1.2,0.2-1.6,1.1-1.6c0.9,0,1,0.4,1,1.2v0.5H817.5z M818.8,620.9c0-0.6,0-0.9-0.7-0.9s-0.7,0.3-0.7,0.9H818.8z"/>
<path class="st2" d="M820.1,619.6h0.4v0.4c0.1-0.2,0.2-0.3,0.3-0.4c0.1-0.1,0.3-0.1,0.5-0.1c0.4,0,0.7,0.1,0.8,0.5
	c0.1-0.2,0.2-0.3,0.4-0.4c0.2-0.1,0.3-0.1,0.5-0.1c0.1,0,0.2,0,0.4,0c0.1,0,0.2,0.1,0.3,0.2s0.2,0.2,0.2,0.3c0,0.1,0,0.2,0,0.4v2.2
	h-0.4v-1.9c0-0.6-0.2-0.7-0.6-0.7c-0.4,0-0.7,0.2-0.7,0.8v1.9h-0.4v-2.1c0-0.5-0.2-0.6-0.6-0.6c-0.4,0-0.8,0.3-0.8,1v1.7h-0.4V619.6
	z"/>
<path class="st2" d="M824.8,618.3h0.4v1.6c0.1-0.1,0.2-0.3,0.4-0.3c0.1-0.1,0.3-0.1,0.5-0.1c0.8,0,1,0.4,1,1.5s-0.2,1.5-1.1,1.5
	c-0.2,0-0.3,0-0.5-0.1c-0.1-0.1-0.2-0.2-0.3-0.3v0.4h-0.4V618.3z M825.9,619.9c-0.5,0-0.7,0.3-0.7,1c0,1.1,0.1,1.3,0.7,1.3
	s0.7-0.1,0.7-1.2C826.6,620.1,826.5,620,825.9,619.9L825.9,619.9z"/>
<path class="st2" d="M829.6,622.3c-0.1,0.1-0.2,0.2-0.4,0.3c-0.2,0.1-0.3,0.1-0.5,0c-0.8,0-0.9-0.4-0.9-0.9c0-0.6,0.1-0.9,0.9-0.9
	c0.6,0,0.7,0.1,0.8,0.3v-0.5c0-0.5,0-0.6-0.7-0.6c-0.7,0-0.6,0.1-0.6,0.5h-0.4v-0.1c0-0.4,0.1-0.7,1-0.7c0.9,0,1,0.3,1,0.8v2.2h-0.3
	L829.6,622.3z M828.9,622.3c0.5,0,0.7-0.1,0.7-0.6s-0.2-0.6-0.7-0.6s-0.7,0.1-0.7,0.6S828.4,622.3,828.9,622.3L828.9,622.3z"/>
<path class="st2" d="M830.9,618.3h0.4v4.3h-0.4V618.3z"/>
<path class="st2" d="M834,622.3c-0.1,0.1-0.2,0.2-0.4,0.3c-0.2,0.1-0.3,0.1-0.5,0c-0.8,0-0.9-0.4-0.9-0.9c0-0.6,0.1-0.9,0.9-0.9
	c0.6,0,0.7,0.1,0.8,0.3v-0.5c0-0.5,0-0.6-0.7-0.6c-0.7,0-0.6,0.1-0.6,0.5h-0.4v-0.1c0-0.4,0.1-0.7,1-0.7c0.9,0,1,0.3,1,0.8v2.2h-0.3
	L834,622.3z M833.3,622.3c0.5,0,0.7-0.1,0.7-0.6s-0.2-0.6-0.7-0.6s-0.7,0.1-0.7,0.6S832.8,622.3,833.3,622.3L833.3,622.3z"/>
<path class="st2" d="M835.3,619.6h0.4v3.5c0,0.3-0.2,0.5-0.5,0.5H835v-0.3c0.2,0,0.3,0,0.3-0.2V619.6z M835.3,618.4h0.4v0.5h-0.4
	V618.4z"/>
<path class="st2" d="M837,621.2v0.3c0,0.6,0.1,0.8,0.6,0.8c0.5,0,0.7,0,0.7-0.6h0.4v0.1c0,0.6-0.1,0.8-1,0.8c-0.8,0-1.1-0.3-1.1-1.5
	c0-1.2,0.2-1.6,1.1-1.6c0.9,0,1,0.4,1,1.2v0.5H837z M838.3,620.9c0-0.6,0-0.9-0.7-0.9c-0.7,0-0.7,0.3-0.7,0.9H838.3z"/>
<path class="st2" d="M840,621.7c0,0.5,0.1,0.6,0.6,0.6s0.7-0.1,0.7-0.6s0-0.4-0.8-0.5c-0.8,0-1-0.1-1-0.8c0-0.7,0.1-0.9,1-0.9
	s1,0.2,1,0.8h-0.4c0-0.5-0.1-0.5-0.7-0.5s-0.6,0-0.6,0.5c0,0.5,0,0.5,0.7,0.5c0.9,0.1,1,0.1,1,0.8c0,0.7-0.1,1-1.1,1
	c-0.7,0-1-0.1-1-1L840,621.7z"/>
<path class="st16" d="M736,584.7l-19.9,10l19.9,10V584.7z"/>
<path class="st17" d="M736,604.7l19.9-10h0v0h0l-19.9-10V604.7z"/>
<path class="st16" d="M736,619.1v14.2l11.2-6.5v-14.1L736,619.1z"/>
<path class="st17" d="M736,619.1v14.2l-11.2-6.5l0-14.1L736,619.1z"/>
<path class="st10" d="M736,605.7V618l11.9-6.8v15.2l8.8-5.1v-25.9L736,605.7z"/>
<path class="st2" d="M736,605.7V618l-11.9-6.8v15.2l-8.8-5.1v-25.9L736,605.7z"/>
<path class="st11" d="M715.3,595.3l20.7-10.6l20.7,10.6v25.9l-20.7,12.1l-20.7-12.1V595.3z"/>
</svg>
